<svg width="630" height="656" viewBox="0 0 630 656" fill="none" xmlns="http://www.w3.org/2000/svg">
<rect x="44" width="225" height="277" rx="12" fill="#F5F9FC" fill-opacity="0.05"/>
<path opacity="0.7" d="M72.176 33L71.21 30.662H66.492L65.54 33H64.238L68.242 23.2H69.39L73.506 33H72.176ZM68.83 24.894L66.954 29.528H70.748L68.83 24.894ZM81.7837 33L79.5297 29.178H77.3037V33H76.0717V23.2H79.7957C81.6297 23.2 82.9877 24.46 82.9877 26.196C82.9877 27.582 82.1057 28.66 80.8177 29.024L83.1697 33H81.7837ZM77.3037 24.376V28.002H79.7257C80.9297 28.002 81.7277 27.246 81.7277 26.196C81.7277 25.146 80.9297 24.376 79.7257 24.376H77.3037ZM92.0571 23.2V24.362H89.0751V33H87.8571V24.362H84.8751V23.2H92.0571ZM94.6704 33V23.2H95.9024V33H94.6704ZM105.063 24.376H100.793V27.61H104.699V28.744H100.793V33H99.5605V23.2H105.063V24.376ZM107.869 33V23.2H109.101V33H107.869ZM117.113 33.154C114.201 33.154 112.087 31.04 112.087 28.114C112.087 25.174 114.201 23.06 117.113 23.06C119.381 23.06 121.201 24.404 121.761 26.518H120.501C119.983 25.104 118.723 24.25 117.113 24.25C114.929 24.25 113.347 25.86 113.347 28.114C113.347 30.368 114.929 31.95 117.113 31.95C118.765 31.95 120.039 31.054 120.557 29.556H121.803C121.243 31.768 119.423 33.154 117.113 33.154ZM124.608 33V23.2H125.84V33H124.608ZM136.344 33L135.378 30.662H130.66L129.708 33H128.406L132.41 23.2H133.558L137.674 33H136.344ZM132.998 24.894L131.122 29.528H134.916L132.998 24.894ZM141.472 31.852H145.77V33H140.24V23.2H141.472V31.852ZM65.33 51V41.2H66.562V51H65.33ZM76.8282 41.2H78.0322V51H76.9962L71.4242 43.356V51H70.2202V41.2H71.3402L76.8282 48.76V41.2ZM87.8325 41.2V42.362H84.8505V51H83.6325V42.362H80.6505V41.2H87.8325ZM91.6778 49.824H96.1438V51H90.4458V41.2H95.9898V42.376H91.6778V45.4H95.6258V46.534H91.6778V49.824ZM100.396 49.852H104.694V51H99.1641V41.2H100.396V49.852ZM108.54 49.852H112.838V51H107.308V41.2H108.54V49.852ZM115.452 51V41.2H116.684V51H115.452ZM124.304 46.142H129.554C129.498 49.096 127.482 51.168 124.654 51.168C121.77 51.168 119.684 49.026 119.684 46.114C119.684 43.202 121.77 41.06 124.626 41.06C126.978 41.06 128.966 42.53 129.4 44.63H128.126C127.706 43.202 126.306 42.264 124.654 42.264C122.484 42.264 120.93 43.86 120.93 46.114C120.93 48.382 122.442 49.964 124.654 49.964C126.446 49.964 127.86 48.9 128.21 47.304H124.304V46.142ZM133.724 49.824H138.19V51H132.492V41.2H138.036V42.376H133.724V45.4H137.672V46.534H133.724V49.824ZM147.819 41.2H149.023V51H147.987L142.415 43.356V51H141.211V41.2H142.331L147.819 48.76V41.2ZM157.031 51.154C154.119 51.154 152.005 49.04 152.005 46.114C152.005 43.174 154.119 41.06 157.031 41.06C159.299 41.06 161.119 42.404 161.679 44.518H160.419C159.901 43.104 158.641 42.25 157.031 42.25C154.847 42.25 153.265 43.86 153.265 46.114C153.265 48.368 154.847 49.95 157.031 49.95C158.683 49.95 159.957 49.054 160.475 47.556H161.721C161.161 49.768 159.341 51.154 157.031 51.154ZM165.758 49.824H170.224V51H164.526V41.2H170.07V42.376H165.758V45.4H169.706V46.534H165.758V49.824Z" fill="white"/>
<g opacity="0.4">
<path d="M92.3594 125.224L142.718 105.667M92.3594 125.224L142.718 147.714M92.3594 125.224L142.718 191.227M92.3594 125.224L142.718 234.252" stroke="white" stroke-width="0.977832" stroke-dasharray="1.96 1.96"/>
<path d="M220.943 146.736L171.562 105.667L220.943 187.316" stroke="white" stroke-width="0.977832" stroke-dasharray="1.96 1.96"/>
<path d="M220.943 146.736H171.562L220.943 187.316" stroke="white" stroke-width="0.977832" stroke-dasharray="1.96 1.96"/>
<path d="M220.943 146.736L171.562 190.739L220.943 187.316" stroke="white" stroke-width="0.977832" stroke-dasharray="1.96 1.96"/>
<path d="M220.943 146.736L171.562 233.763L220.943 187.316" stroke="white" stroke-width="0.977832" stroke-dasharray="1.96 1.96"/>
<path d="M92.3594 169.226L142.718 105.667M92.3594 169.226L142.718 147.714M92.3594 169.226L142.718 191.227M92.3594 169.226L142.718 234.252" stroke="white" stroke-width="0.977832" stroke-dasharray="1.96 1.96"/>
<path d="M92.3594 210.784L142.718 105.667M92.3594 210.784L142.718 147.714M92.3594 210.784L142.718 191.227M92.3594 210.784L142.718 234.252" stroke="white" stroke-width="0.977832" stroke-dasharray="1.96 1.96"/>
</g>
<circle cx="77.6897" cy="126.202" r="12.7118" stroke="#33C8C3" stroke-width="1.95566"/>
<circle cx="77.6897" cy="169.227" r="12.7118" stroke="#33C8C3" stroke-width="1.95566"/>
<circle cx="77.6897" cy="212.251" r="12.7118" stroke="#33C8C3" stroke-width="1.95566"/>
<circle cx="156.893" cy="104.69" r="12.7118" stroke="white" stroke-width="1.95566"/>
<circle cx="156.893" cy="147.714" r="12.7118" stroke="white" stroke-width="1.95566"/>
<circle cx="156.893" cy="190.738" r="12.7118" stroke="white" stroke-width="1.95566"/>
<circle cx="156.893" cy="233.764" r="12.7118" stroke="white" stroke-width="1.95566"/>
<circle cx="235.119" cy="147.715" r="12.7118" stroke="#6473EE" stroke-width="1.95566"/>
<circle cx="235.119" cy="190.739" r="12.7118" stroke="#6473EE" stroke-width="1.95566"/>
<g clip-path="url(#clip0_1106_3791)">
<rect x="287" width="277" height="153" rx="12" fill="#F5F9FC" fill-opacity="0.05"/>
<path opacity="0.7" d="M315.176 33L314.21 30.662H309.492L308.54 33H307.238L311.242 23.2H312.39L316.506 33H315.176ZM311.83 24.894L309.954 29.528H313.748L311.83 24.894ZM325.68 23.2H326.884V33H325.848L320.276 25.356V33H319.072V23.2H320.192L325.68 30.76V23.2ZM337.384 33L336.418 30.662H331.7L330.748 33H329.446L333.45 23.2H334.598L338.714 33H337.384ZM334.038 24.894L332.162 29.528H335.956L334.038 24.894ZM342.512 31.852H346.81V33H341.28V23.2H342.512V31.852ZM355.698 23.2L352.086 29.094V33H350.812V29.094L347.228 23.2H348.572L351.456 27.946L354.354 23.2H355.698ZM364.521 23.2V24.362H361.539V33H360.321V24.362H357.339V23.2H364.521ZM367.134 33V23.2H368.366V33H367.134ZM376.378 33.154C373.466 33.154 371.352 31.04 371.352 28.114C371.352 25.174 373.466 23.06 376.378 23.06C378.646 23.06 380.466 24.404 381.026 26.518H379.766C379.248 25.104 377.988 24.25 376.378 24.25C374.194 24.25 372.612 25.86 372.612 28.114C372.612 30.368 374.194 31.95 376.378 31.95C378.03 31.95 379.304 31.054 379.822 29.556H381.068C380.508 31.768 378.688 33.154 376.378 33.154ZM386.799 33.126C384.643 33.126 383.173 31.922 383.173 29.99H384.433C384.433 31.208 385.427 31.922 386.785 31.922C388.017 31.922 388.983 31.278 388.983 30.242C388.983 29.094 387.821 28.828 386.547 28.52C385.035 28.17 383.369 27.764 383.369 25.804C383.369 24.11 384.671 23.088 386.701 23.088C388.731 23.088 389.977 24.208 389.977 25.986H388.759C388.759 24.894 387.863 24.264 386.673 24.264C385.483 24.264 384.587 24.824 384.587 25.762C384.587 26.826 385.721 27.106 386.981 27.4C388.521 27.778 390.257 28.184 390.257 30.228C390.257 32.076 388.745 33.126 386.799 33.126Z" fill="white"/>
<path opacity="0.2" d="M339.113 113.183C317.062 111.643 287.219 135.786 287.219 135.786V214.896H563.757V113.183C563.757 113.183 542.507 127.355 528.008 124.946C504.865 121.1 517.954 81.1934 495.488 74.4356C479.215 69.5407 468.647 89.1529 452.819 82.9693C436.893 76.7473 442.318 55.4726 427.218 47.4506C393.068 29.3078 421.136 136.543 382.474 135.786C363.381 135.412 358.162 114.514 339.113 113.183Z" fill="url(#paint0_linear_1106_3791)"/>
<path d="M287.219 135.786C287.219 135.786 317.062 111.643 339.113 113.183C358.162 114.514 363.381 135.413 382.474 135.786C421.136 136.543 393.068 29.3078 427.218 47.4506C442.318 55.4726 436.893 76.7473 452.819 82.9693C468.647 89.153 479.215 69.5407 495.488 74.4356C517.954 81.1934 504.865 121.1 528.008 124.946C542.507 127.355 563.757 113.183 563.757 113.183" stroke="#6473EE" stroke-width="2.30641" stroke-linecap="round"/>
<path d="M287 86.1995C287 86.1995 310.041 102.957 325.748 101.652C345.37 100.023 346.434 72.1835 366.11 71.4385C389.482 70.5536 389.163 116.158 411.777 110.186C424.477 106.833 424.128 91.4368 436.686 87.5834C458.454 80.9036 464.385 120.031 486.966 117.105C505.619 114.688 505.41 86.0129 524.099 83.8931C540.095 82.0788 545.549 92.8881 564 97.9622" stroke="#33C8C3" stroke-width="2.30641" stroke-linecap="round"/>
<path opacity="0.3" d="M310.758 213.513V29" stroke="#171724" stroke-width="0.461282" stroke-linecap="round" stroke-dasharray="0 0.46 6.46 0 0.46 6.46"/>
<path opacity="0.3" d="M348.805 213.513V29" stroke="#171724" stroke-width="0.461282" stroke-linecap="round" stroke-dasharray="0 0.46 6.46 0 0.46 6.46"/>
<path opacity="0.3" d="M386.875 213.513V29" stroke="#171724" stroke-width="0.461282" stroke-linecap="round" stroke-dasharray="0 0.46 6.46 0 0.46 6.46"/>
<path opacity="0.3" d="M424.922 214.897V30.3838" stroke="#171724" stroke-width="0.461282" stroke-linecap="round" stroke-dasharray="0 0.46 6.46 0 0.46 6.46"/>
<path opacity="0.3" d="M462.977 214.897V30.3838" stroke="#171724" stroke-width="0.461282" stroke-linecap="round" stroke-dasharray="0 0.46 6.46 0 0.46 6.46"/>
<path opacity="0.3" d="M501.039 214.897V30.3838" stroke="#171724" stroke-width="0.461282" stroke-linecap="round" stroke-dasharray="0 0.46 6.46 0 0.46 6.46"/>
<path opacity="0.3" d="M539.094 214.897V30.3838" stroke="#171724" stroke-width="0.461282" stroke-linecap="round" stroke-dasharray="0 0.46 6.46 0 0.46 6.46"/>
<g filter="url(#filter0_d_1106_3791)">
<circle cx="424.921" cy="45.6075" r="9.22564" fill="#6473EE"/>
<circle cx="424.921" cy="45.6075" r="7.38052" stroke="white" stroke-width="3.69026"/>
</g>
</g>
<rect x="287" y="381" width="277" height="275" rx="12" fill="#F5F9FC" fill-opacity="0.05"/>
<path opacity="0.7" d="M312.796 420.168C309.828 420.168 307.658 417.998 307.658 415.114C307.658 412.216 309.828 410.046 312.796 410.046C315.764 410.046 317.92 412.216 317.92 415.114C317.92 417.998 315.764 420.168 312.796 420.168ZM312.796 418.964C315.022 418.964 316.674 417.312 316.674 415.114C316.674 412.902 315.022 411.25 312.796 411.25C310.57 411.25 308.918 412.916 308.918 415.114C308.918 417.298 310.57 418.964 312.796 418.964ZM324.431 410.2C326.279 410.2 327.679 411.544 327.679 413.35C327.679 415.142 326.293 416.486 324.431 416.486H322.149V420H320.917V410.2H324.431ZM324.375 415.296C325.565 415.296 326.433 414.47 326.433 413.35C326.433 412.23 325.565 411.39 324.375 411.39H322.149V415.296H324.375ZM336.588 410.2V411.362H333.606V420H332.388V411.362H329.406V410.2H336.588ZM339.202 420V410.2H340.434V420H339.202ZM355.53 420H354.27L352.996 412.356L349.622 419.762H349.286L345.912 412.356L344.624 420H343.364L345.016 410.2H346.206L349.44 417.396L352.688 410.2H353.906L355.53 420ZM358.47 420V410.2H359.702V420H358.47ZM364.34 418.852H369.534V420H362.38V419.79L367.448 411.362H362.604V410.2H369.38V410.438L364.34 418.852ZM379.075 420L378.109 417.662H373.391L372.439 420H371.137L375.141 410.2H376.289L380.405 420H379.075ZM375.729 411.894L373.853 416.528H377.647L375.729 411.894ZM388.201 410.2V411.362H385.219V420H384.001V411.362H381.019V410.2H388.201ZM390.814 420V410.2H392.046V420H390.814ZM400.17 420.168C397.202 420.168 395.032 417.998 395.032 415.114C395.032 412.216 397.202 410.046 400.17 410.046C403.138 410.046 405.294 412.216 405.294 415.114C405.294 417.998 403.138 420.168 400.17 420.168ZM400.17 418.964C402.396 418.964 404.048 417.312 404.048 415.114C404.048 412.902 402.396 411.25 400.17 411.25C397.944 411.25 396.292 412.916 396.292 415.114C396.292 417.298 397.944 418.964 400.17 418.964ZM414.9 410.2H416.104V420H415.068L409.496 412.356V420H408.292V410.2H409.412L414.9 417.76V410.2ZM430.852 420L429.886 417.662H425.168L424.216 420H422.914L426.918 410.2H428.066L432.182 420H430.852ZM427.506 411.894L425.63 416.528H429.424L427.506 411.894ZM441.355 410.2H442.559V420H441.523L435.951 412.356V420H434.747V410.2H435.867L441.355 417.76V410.2ZM449.476 410.2V410.214C452.36 410.214 454.446 412.272 454.446 415.1C454.446 417.942 452.36 420 449.476 420H446.214V410.2H449.476ZM449.448 418.852C451.646 418.852 453.2 417.27 453.2 415.1C453.2 412.944 451.646 411.362 449.448 411.362H447.446V418.852H449.448ZM311.256 438.126C309.1 438.126 307.63 436.922 307.63 434.99H308.89C308.89 436.208 309.884 436.922 311.242 436.922C312.474 436.922 313.44 436.278 313.44 435.242C313.44 434.094 312.278 433.828 311.004 433.52C309.492 433.17 307.826 432.764 307.826 430.804C307.826 429.11 309.128 428.088 311.158 428.088C313.188 428.088 314.434 429.208 314.434 430.986H313.216C313.216 429.894 312.32 429.264 311.13 429.264C309.94 429.264 309.044 429.824 309.044 430.762C309.044 431.826 310.178 432.106 311.438 432.4C312.978 432.778 314.714 433.184 314.714 435.228C314.714 437.076 313.202 438.126 311.256 438.126ZM317.664 438V428.2H318.896V438H317.664ZM333.992 438H332.732L331.458 430.356L328.084 437.762H327.748L324.374 430.356L323.086 438H321.826L323.478 428.2H324.668L327.902 435.396L331.15 428.2H332.368L333.992 438ZM340.67 438.168C338.458 438.168 336.82 436.586 336.82 434.36V428.2H338.066V434.262C338.066 435.886 339.144 436.964 340.67 436.964C342.182 436.964 343.274 435.886 343.274 434.262V428.2H344.506V434.36C344.506 436.586 342.868 438.168 340.67 438.168ZM349.275 436.852H353.573V438H348.043V428.2H349.275V436.852ZM363.033 438L362.067 435.662H357.349L356.397 438H355.095L359.099 428.2H360.247L364.363 438H363.033ZM359.687 429.894L357.811 434.528H361.605L359.687 429.894ZM372.159 428.2V429.362H369.177V438H367.959V429.362H364.977V428.2H372.159ZM374.772 438V428.2H376.004V438H374.772ZM384.128 438.168C381.16 438.168 378.99 435.998 378.99 433.114C378.99 430.216 381.16 428.046 384.128 428.046C387.096 428.046 389.252 430.216 389.252 433.114C389.252 435.998 387.096 438.168 384.128 438.168ZM384.128 436.964C386.354 436.964 388.006 435.312 388.006 433.114C388.006 430.902 386.354 429.25 384.128 429.25C381.902 429.25 380.25 430.916 380.25 433.114C380.25 435.298 381.902 436.964 384.128 436.964ZM398.858 428.2H400.062V438H399.026L393.454 430.356V438H392.25V428.2H393.37L398.858 435.76V428.2Z" fill="white"/>
<path opacity="0.4" d="M307 466L307 638L544 638" stroke="white" stroke-linecap="round" stroke-linejoin="round"/>
<circle cx="327.751" cy="491.919" r="4.75113" fill="#33C8C3"/>
<circle cx="329.65" cy="499.521" r="4.75113" fill="#33C8C3"/>
<circle cx="346.759" cy="514.725" r="4.75113" fill="#33C8C3"/>
<circle cx="352.454" cy="531.828" r="4.75113" fill="#33C8C3"/>
<circle cx="362.907" cy="537.53" r="4.75113" fill="#33C8C3"/>
<circle cx="381.915" cy="560.335" r="4.75113" fill="#33C8C3"/>
<circle cx="387.618" cy="557.485" r="4.75113" fill="#33C8C3"/>
<circle cx="394.267" cy="573.639" r="4.75113" fill="#33C8C3"/>
<circle cx="424.673" cy="581.24" r="4.75113" fill="#33C8C3"/>
<circle cx="432.275" cy="566.036" r="4.75113" fill="#33C8C3"/>
<circle cx="430.376" cy="587.892" r="4.75113" fill="#33C8C3"/>
<circle cx="410.423" cy="590.742" r="4.75113" fill="#33C8C3"/>
<circle cx="446.532" cy="604.046" r="4.75113" fill="#33C8C3"/>
<circle cx="455.079" cy="591.693" r="4.75113" fill="#33C8C3"/>
<circle cx="457.931" cy="599.295" r="4.75113" fill="#33C8C3"/>
<circle cx="465.532" cy="599.295" r="4.75113" fill="#33C8C3"/>
<circle cx="468.384" cy="606.897" r="4.75113" fill="#33C8C3"/>
<circle cx="483.587" cy="606.897" r="4.75113" fill="#33C8C3"/>
<circle cx="529.196" cy="606.897" r="4.75113" fill="#33C8C3"/>
<circle cx="519.696" cy="596.444" r="4.75113" fill="#33C8C3"/>
<circle cx="512.095" cy="619.249" r="4.75113" fill="#33C8C3"/>
<circle cx="358.157" cy="550.833" r="4.75113" fill="#33C8C3"/>
<g clip-path="url(#clip1_1106_3791)">
<rect y="295" width="268" height="331" rx="12" fill="#F5F9FC" fill-opacity="0.05"/>
<path opacity="0.7" d="M24.256 328.126C22.1 328.126 20.63 326.922 20.63 324.99H21.89C21.89 326.208 22.884 326.922 24.242 326.922C25.474 326.922 26.44 326.278 26.44 325.242C26.44 324.094 25.278 323.828 24.004 323.52C22.492 323.17 20.826 322.764 20.826 320.804C20.826 319.11 22.128 318.088 24.158 318.088C26.188 318.088 27.434 319.208 27.434 320.986H26.216C26.216 319.894 25.32 319.264 24.13 319.264C22.94 319.264 22.044 319.824 22.044 320.762C22.044 321.826 23.178 322.106 24.438 322.4C25.978 322.778 27.714 323.184 27.714 325.228C27.714 327.076 26.202 328.126 24.256 328.126ZM36.6591 318.2V319.362H33.6771V328H32.4591V319.362H29.4771V318.2H36.6591ZM44.9844 328L42.7304 324.178H40.5044V328H39.2724V318.2H42.9964C44.8304 318.2 46.1884 319.46 46.1884 321.196C46.1884 322.582 45.3064 323.66 44.0184 324.024L46.3704 328H44.9844ZM40.5044 319.376V323.002H42.9264C44.1304 323.002 44.9284 322.246 44.9284 321.196C44.9284 320.146 44.1304 319.376 42.9264 319.376H40.5044ZM55.9988 328L55.0328 325.662H50.3148L49.3628 328H48.0608L52.0648 318.2H53.2128L57.3288 328H55.9988ZM52.6528 319.894L50.7768 324.528H54.5708L52.6528 319.894ZM65.1245 318.2V319.362H62.1425V328H60.9245V319.362H57.9425V318.2H65.1245ZM68.9698 326.824H73.4358V328H67.7378V318.2H73.2818V319.376H68.9698V322.4H72.9178V323.534H68.9698V326.824ZM80.2404 323.142H85.4904C85.4344 326.096 83.4184 328.168 80.5904 328.168C77.7064 328.168 75.6204 326.026 75.6204 323.114C75.6204 320.202 77.7064 318.06 80.5624 318.06C82.9144 318.06 84.9024 319.53 85.3364 321.63H84.0624C83.6424 320.202 82.2424 319.264 80.5904 319.264C78.4204 319.264 76.8664 320.86 76.8664 323.114C76.8664 325.382 78.3784 326.964 80.5904 326.964C82.3824 326.964 83.7964 325.9 84.1464 324.304H80.2404V323.142ZM95.3447 318.2L91.7327 324.094V328H90.4587V324.094L86.8747 318.2H88.2187L91.1027 322.946L94.0007 318.2H95.3447Z" fill="white"/>
<path opacity="0.1" d="M117 422.723C117 417.353 121.353 413 126.723 413H141.277C146.647 413 151 417.353 151 422.723V630H117V422.723Z" fill="#6473EE"/>
<rect x="26.3984" y="531.848" width="8.75079" height="51.5324" rx="1.94462" fill="#6473EE"/>
<rect opacity="0.4" x="16.1875" y="546.431" width="8.75079" height="36.9478" rx="1.94462" fill="#6473EE"/>
<rect x="134.328" y="465.732" width="8.75079" height="117.649" rx="1.94462" fill="#33C8C3"/>
<rect opacity="0.4" x="124.117" y="498.792" width="8.75079" height="84.591" rx="1.94462" fill="#33C8C3"/>
<rect x="62.375" y="487.124" width="8.75079" height="96.2587" rx="1.94462" fill="#6473EE"/>
<rect opacity="0.4" x="52.1641" y="514.349" width="8.75079" height="69.034" rx="1.94462" fill="#6473EE"/>
<rect x="170.305" y="546.436" width="8.75079" height="36.9478" rx="1.94462" fill="#6473EE"/>
<rect opacity="0.4" x="160.094" y="556.646" width="8.75079" height="26.7385" rx="1.94462" fill="#6473EE"/>
<rect x="98.3516" y="436.562" width="8.75079" height="146.819" rx="1.94462" fill="#6473EE"/>
<rect opacity="0.4" x="88.1406" y="477.884" width="8.75079" height="105.496" rx="1.94462" fill="#6473EE"/>
<rect x="206.281" y="440.452" width="8.75079" height="142.93" rx="1.94462" fill="#6473EE"/>
<rect opacity="0.4" x="196.07" y="480.803" width="8.75079" height="102.579" rx="1.94462" fill="#6473EE"/>
<rect x="242.242" y="482.747" width="8.75079" height="100.634" rx="1.94462" fill="#6473EE"/>
<rect opacity="0.4" x="232.031" y="510.943" width="8.75079" height="72.4371" rx="1.94462" fill="#6473EE"/>
<path opacity="0.5" d="M24.3426 598.104H23.8175L23.2867 594.918L21.8807 598.004H21.7407L20.3347 594.918L19.798 598.104H19.273L19.9614 594.02H20.4572L21.8049 597.018L23.1583 594.02H23.6659L24.3426 598.104ZM26.4962 598.174C25.5394 598.174 24.8218 597.473 24.8218 596.528C24.8218 595.583 25.5394 594.889 26.4962 594.889C27.4471 594.889 28.1646 595.589 28.1646 596.528C28.1646 597.473 27.4471 598.174 26.4962 598.174ZM26.4962 597.695C27.167 597.695 27.6571 597.205 27.6571 596.534C27.6571 595.857 27.167 595.367 26.4962 595.367C25.8194 595.367 25.3294 595.857 25.3294 596.528C25.3294 597.205 25.8194 597.695 26.4962 597.695ZM30.4934 594.889C31.246 594.889 31.7127 595.449 31.7127 596.219V598.104H31.2168V596.336C31.2168 595.7 30.9134 595.338 30.3709 595.338C29.8283 595.338 29.4141 595.799 29.4141 596.388V598.104H28.9183V594.953H29.2741L29.3675 595.449C29.6066 595.099 30.0092 594.889 30.4934 594.889Z" fill="white"/>
<path opacity="0.5" d="M168.916 594.51H167.137V595.857H168.764V596.33H167.137V598.104H166.623V594.02H168.916V594.51ZM170.968 594.942H171.248V595.408H170.928C170.35 595.408 170.023 595.782 170.023 596.394V598.104H169.527V594.953H169.883L169.959 595.437C170.187 595.111 170.513 594.942 170.968 594.942ZM171.76 594.411V593.845H172.297V594.411H171.76ZM171.778 598.104V594.953H172.274V598.104H171.778Z" fill="white"/>
<path opacity="0.5" d="M59.0212 594.02V594.504H57.7786V598.104H57.2711V594.504H56.0285V594.02H59.0212ZM60.6378 598.174C59.7918 598.174 59.2435 597.625 59.2435 596.779V594.953H59.7393V596.698C59.7393 597.316 60.0835 597.695 60.6378 597.695C61.2036 597.695 61.542 597.31 61.542 596.698V594.953H62.0379V596.779C62.0379 597.625 61.4953 598.174 60.6378 598.174ZM65.9281 596.546C65.9281 596.604 65.9223 596.663 65.9164 596.721H63.2329C63.3087 597.304 63.7462 597.689 64.3413 597.689C64.7788 597.689 65.1289 597.485 65.3214 597.147H65.8464C65.5781 597.794 65.0239 598.174 64.3413 598.174C63.4254 598.174 62.737 597.468 62.737 596.528C62.737 595.595 63.4254 594.889 64.3413 594.889C65.2981 594.889 65.9281 595.624 65.9281 596.546ZM64.3413 595.356C63.7696 595.356 63.3437 595.717 63.2445 596.266H65.4322C65.3272 595.706 64.9014 595.356 64.3413 595.356Z" fill="white"/>
<path opacity="0.5" d="M95.6153 594.02H96.1578L94.8685 598.104H94.4193L93.2934 595.204L92.1966 598.104H91.7474L90.4348 594.02H90.9773L91.9924 597.269L93.1884 594.101H93.3926L94.6235 597.269L95.6153 594.02ZM99.5196 596.546C99.5196 596.604 99.5138 596.663 99.5079 596.721H96.8244C96.9002 597.304 97.3377 597.689 97.9328 597.689C98.3703 597.689 98.7204 597.485 98.9129 597.147H99.4379C99.1696 597.794 98.6154 598.174 97.9328 598.174C97.0169 598.174 96.3285 597.468 96.3285 596.528C96.3285 595.595 97.0169 594.889 97.9328 594.889C98.8896 594.889 99.5196 595.624 99.5196 596.546ZM97.9328 595.356C97.3611 595.356 96.9352 595.717 96.836 596.266H99.0237C98.9187 595.706 98.4928 595.356 97.9328 595.356ZM102.803 593.833H103.299V598.109H102.914L102.85 597.66C102.558 597.981 102.132 598.174 101.636 598.174C100.691 598.174 100.009 597.468 100.009 596.534C100.009 595.589 100.691 594.889 101.636 594.889C102.103 594.889 102.511 595.064 102.803 595.356V593.833ZM101.671 597.695C102.342 597.695 102.832 597.193 102.832 596.534C102.832 595.869 102.342 595.367 101.671 595.367C101.006 595.367 100.516 595.863 100.516 596.534C100.516 597.199 101.006 597.695 101.671 597.695Z" fill="white"/>
<path opacity="0.5" d="M201.767 598.156C200.868 598.156 200.256 597.654 200.256 596.849H200.781C200.781 597.357 201.195 597.654 201.761 597.654C202.274 597.654 202.677 597.386 202.677 596.954C202.677 596.476 202.192 596.365 201.662 596.237C201.032 596.091 200.337 595.922 200.337 595.105C200.337 594.399 200.88 593.973 201.726 593.973C202.572 593.973 203.091 594.44 203.091 595.181H202.583C202.583 594.726 202.21 594.463 201.714 594.463C201.218 594.463 200.845 594.697 200.845 595.087C200.845 595.531 201.317 595.647 201.842 595.77C202.484 595.927 203.208 596.097 203.208 596.948C203.208 597.718 202.578 598.156 201.767 598.156ZM206.659 594.953H207.05V598.104H206.642L206.589 597.631C206.298 597.969 205.866 598.174 205.353 598.174C204.419 598.174 203.719 597.468 203.719 596.534C203.719 595.589 204.419 594.889 205.353 594.889C205.866 594.889 206.303 595.093 206.595 595.437L206.659 594.953ZM205.388 597.695C206.058 597.695 206.543 597.199 206.543 596.528C206.543 595.863 206.058 595.367 205.388 595.367C204.723 595.367 204.227 595.869 204.227 596.528C204.227 597.193 204.723 597.695 205.388 597.695ZM209.356 597.648H209.7V598.104H209.292C208.615 598.104 208.195 597.689 208.195 597.007V595.402H207.641V595.315L208.615 594.288H208.691V594.953H209.683V595.402H208.691V596.989C208.691 597.415 208.924 597.648 209.356 597.648Z" fill="white"/>
<path d="M131.305 594.02V594.504H130.062V598.104H129.555V594.504H128.312V594.02H131.305ZM133.468 594.889C134.221 594.889 134.687 595.402 134.687 596.219V598.104H134.191V596.336C134.191 595.7 133.888 595.338 133.346 595.338C132.803 595.338 132.389 595.799 132.389 596.388V598.104H131.893V593.833H132.389V595.385C132.634 595.076 133.013 594.889 133.468 594.889ZM136.978 598.174C136.132 598.174 135.583 597.625 135.583 596.779V594.953H136.079V596.698C136.079 597.316 136.423 597.695 136.978 597.695C137.544 597.695 137.882 597.31 137.882 596.698V594.953H138.378V596.779C138.378 597.625 137.835 598.174 136.978 598.174Z" fill="white"/>
<path opacity="0.5" d="M237.748 598.156C236.85 598.156 236.237 597.654 236.237 596.849H236.762C236.762 597.357 237.176 597.654 237.742 597.654C238.256 597.654 238.658 597.386 238.658 596.954C238.658 596.476 238.174 596.365 237.643 596.237C237.013 596.091 236.319 595.922 236.319 595.105C236.319 594.399 236.861 593.973 237.707 593.973C238.553 593.973 239.072 594.44 239.072 595.181H238.565C238.565 594.726 238.192 594.463 237.696 594.463C237.2 594.463 236.826 594.697 236.826 595.087C236.826 595.531 237.299 595.647 237.824 595.77C238.466 595.927 239.189 596.097 239.189 596.948C239.189 597.718 238.559 598.156 237.748 598.156ZM241.293 598.174C240.447 598.174 239.899 597.625 239.899 596.779V594.953H240.395V596.698C240.395 597.316 240.739 597.695 241.293 597.695C241.859 597.695 242.198 597.31 242.198 596.698V594.953H242.693V596.779C242.693 597.625 242.151 598.174 241.293 598.174ZM245.213 594.889C245.965 594.889 246.432 595.449 246.432 596.219V598.104H245.936V596.336C245.936 595.7 245.633 595.338 245.09 595.338C244.548 595.338 244.133 595.799 244.133 596.388V598.104H243.638V594.953H243.993L244.087 595.449C244.326 595.099 244.728 594.889 245.213 594.889Z" fill="white"/>
</g>
<rect x="286" y="169" width="344" height="196" rx="12" fill="#F5F9FC" fill-opacity="0.05"/>
<path opacity="0.7" d="M310.592 192.2V192.214C313.476 192.214 315.562 194.272 315.562 197.1C315.562 199.942 313.476 202 310.592 202H307.33V192.2H310.592ZM310.564 200.852C312.762 200.852 314.316 199.27 314.316 197.1C314.316 194.944 312.762 193.362 310.564 193.362H308.562V200.852H310.564ZM325.054 202L324.088 199.662H319.37L318.418 202H317.116L321.12 192.2H322.268L326.384 202H325.054ZM321.708 193.894L319.832 198.528H323.626L321.708 193.894ZM334.18 192.2V193.362H331.198V202H329.98V193.362H326.998V192.2H334.18ZM342.723 202L341.757 199.662H337.039L336.087 202H334.785L338.789 192.2H339.937L344.053 202H342.723ZM339.377 193.894L337.501 198.528H341.295L339.377 193.894ZM352.071 200.824H356.537V202H350.839V192.2H356.383V193.376H352.071V196.4H356.019V197.534H352.071V200.824ZM366.166 192.2H367.37V202H366.334L360.762 194.356V202H359.558V192.2H360.678L366.166 199.76V192.2ZM374.986 197.142H380.236C380.18 200.096 378.164 202.168 375.336 202.168C372.452 202.168 370.366 200.026 370.366 197.114C370.366 194.202 372.452 192.06 375.308 192.06C377.66 192.06 379.648 193.53 380.082 195.63H378.808C378.388 194.202 376.988 193.264 375.336 193.264C373.166 193.264 371.612 194.86 371.612 197.114C371.612 199.382 373.124 200.964 375.336 200.964C377.128 200.964 378.542 199.9 378.892 198.304H374.986V197.142ZM383.174 202V192.2H384.406V202H383.174ZM394.672 192.2H395.876V202H394.84L389.268 194.356V202H388.064V192.2H389.184L394.672 199.76V192.2ZM400.762 200.824H405.228V202H399.53V192.2H405.074V193.376H400.762V196.4H404.71V197.534H400.762V200.824ZM409.481 200.824H413.947V202H408.249V192.2H413.793V193.376H409.481V196.4H413.429V197.534H409.481V200.824ZM422.679 202L420.425 198.178H418.199V202H416.967V192.2H420.691C422.525 192.2 423.883 193.46 423.883 195.196C423.883 196.582 423.001 197.66 421.713 198.024L424.065 202H422.679ZM418.199 193.376V197.002H420.621C421.825 197.002 422.623 196.246 422.623 195.196C422.623 194.146 421.825 193.376 420.621 193.376H418.199ZM426.957 202V192.2H428.189V202H426.957ZM438.455 192.2H439.659V202H438.623L433.051 194.356V202H431.847V192.2H432.967L438.455 199.76V192.2ZM447.275 197.142H452.525C452.469 200.096 450.453 202.168 447.625 202.168C444.741 202.168 442.655 200.026 442.655 197.114C442.655 194.202 444.741 192.06 447.597 192.06C449.949 192.06 451.937 193.53 452.371 195.63H451.097C450.677 194.202 449.277 193.264 447.625 193.264C445.455 193.264 443.901 194.86 443.901 197.114C443.901 199.382 445.413 200.964 447.625 200.964C449.417 200.964 450.831 199.9 451.181 198.304H447.275V197.142ZM466.557 202L465.591 199.662H460.873L459.921 202H458.619L462.623 192.2H463.771L467.887 202H466.557ZM463.211 193.894L461.335 198.528H465.129L463.211 193.894ZM477.06 192.2H478.264V202H477.228L471.656 194.356V202H470.452V192.2H471.572L477.06 199.76V192.2ZM485.181 192.2V192.214C488.065 192.214 490.151 194.272 490.151 197.1C490.151 199.942 488.065 202 485.181 202H481.919V192.2H485.181ZM485.153 200.852C487.351 200.852 488.905 199.27 488.905 197.1C488.905 194.944 487.351 193.362 485.153 193.362H483.151V200.852H485.153ZM307.33 220V210.2H308.562V220H307.33ZM318.828 210.2H320.032V220H318.996L313.424 212.356V220H312.22V210.2H313.34L318.828 217.76V210.2ZM329.188 211.376H324.918V214.61H328.824V215.744H324.918V220H323.686V210.2H329.188V211.376ZM337.707 220L335.453 216.178H333.227V220H331.995V210.2H335.719C337.553 210.2 338.911 211.46 338.911 213.196C338.911 214.582 338.029 215.66 336.741 216.024L339.093 220H337.707ZM333.227 211.376V215.002H335.649C336.853 215.002 337.651 214.246 337.651 213.196C337.651 212.146 336.853 211.376 335.649 211.376H333.227ZM348.721 220L347.755 217.662H343.037L342.085 220H340.783L344.787 210.2H345.935L350.051 220H348.721ZM345.375 211.894L343.499 216.528H347.293L345.375 211.894ZM355.201 220.126C353.045 220.126 351.575 218.922 351.575 216.99H352.835C352.835 218.208 353.829 218.922 355.187 218.922C356.419 218.922 357.385 218.278 357.385 217.242C357.385 216.094 356.223 215.828 354.949 215.52C353.437 215.17 351.771 214.764 351.771 212.804C351.771 211.11 353.073 210.088 355.103 210.088C357.133 210.088 358.379 211.208 358.379 212.986H357.161C357.161 211.894 356.265 211.264 355.075 211.264C353.885 211.264 352.989 211.824 352.989 212.762C352.989 213.826 354.123 214.106 355.383 214.4C356.923 214.778 358.659 215.184 358.659 217.228C358.659 219.076 357.147 220.126 355.201 220.126ZM367.604 210.2V211.362H364.622V220H363.404V211.362H360.422V210.2H367.604ZM375.929 220L373.675 216.178H371.449V220H370.217V210.2H373.941C375.775 210.2 377.133 211.46 377.133 213.196C377.133 214.582 376.251 215.66 374.963 216.024L377.315 220H375.929ZM371.449 211.376V215.002H373.871C375.075 215.002 375.873 214.246 375.873 213.196C375.873 212.146 375.075 211.376 373.871 211.376H371.449ZM383.945 220.168C381.733 220.168 380.095 218.586 380.095 216.36V210.2H381.341V216.262C381.341 217.886 382.419 218.964 383.945 218.964C385.457 218.964 386.549 217.886 386.549 216.262V210.2H387.781V216.36C387.781 218.586 386.143 220.168 383.945 220.168ZM395.672 220.154C392.76 220.154 390.646 218.04 390.646 215.114C390.646 212.174 392.76 210.06 395.672 210.06C397.94 210.06 399.76 211.404 400.32 213.518H399.06C398.542 212.104 397.282 211.25 395.672 211.25C393.488 211.25 391.906 212.86 391.906 215.114C391.906 217.368 393.488 218.95 395.672 218.95C397.324 218.95 398.598 218.054 399.116 216.556H400.362C399.802 218.768 397.982 220.154 395.672 220.154ZM409.163 210.2V211.362H406.181V220H404.963V211.362H401.981V210.2H409.163ZM415.514 220.168C413.302 220.168 411.664 218.586 411.664 216.36V210.2H412.91V216.262C412.91 217.886 413.988 218.964 415.514 218.964C417.026 218.964 418.118 217.886 418.118 216.262V210.2H419.35V216.36C419.35 218.586 417.712 220.168 415.514 220.168ZM428.599 220L426.345 216.178H424.119V220H422.887V210.2H426.611C428.445 210.2 429.803 211.46 429.803 213.196C429.803 214.582 428.921 215.66 427.633 216.024L429.985 220H428.599ZM424.119 211.376V215.002H426.541C427.745 215.002 428.543 214.246 428.543 213.196C428.543 212.146 427.745 211.376 426.541 211.376H424.119ZM434.109 218.824H438.575V220H432.877V210.2H438.421V211.376H434.109V214.4H438.057V215.534H434.109V218.824Z" fill="white"/>
<path d="M390 274.07V334.5C390 335.605 390.895 336.5 392 336.5H448C449.105 336.5 450 335.605 450 334.5V274.07C450 273.402 449.666 272.777 449.109 272.406L421.109 253.74C420.438 253.292 419.562 253.292 418.891 253.74L390.891 272.406C390.334 272.777 390 273.402 390 274.07Z" stroke="#33C8C3" stroke-width="2"/>
<g clip-path="url(#clip2_1106_3791)">
<path d="M420 301C427.594 301 433.75 297.642 433.75 293.5C433.75 289.358 427.594 286 420 286C412.406 286 406.25 289.358 406.25 293.5C406.25 297.642 412.406 301 420 301Z" stroke="#33C8C3" stroke-width="2" stroke-linecap="round" stroke-linejoin="round"/>
<path d="M406.25 293.5V301C406.25 305.142 412.406 308.5 420 308.5C427.594 308.5 433.75 305.142 433.75 301V293.5" stroke="#33C8C3" stroke-width="2" stroke-linecap="round" stroke-linejoin="round"/>
<path d="M406.25 301V308.5C406.25 312.642 412.406 316 420 316C427.594 316 433.75 312.642 433.75 308.5V301" stroke="#33C8C3" stroke-width="2" stroke-linecap="round" stroke-linejoin="round"/>
</g>
<g clip-path="url(#clip3_1106_3791)">
<path d="M494.5 252.5V245.75H499" stroke="#6473EE" stroke-width="1.5" stroke-linecap="round" stroke-linejoin="round"/>
<path d="M511 252.5H493" stroke="#6473EE" stroke-width="1.5" stroke-linecap="round" stroke-linejoin="round"/>
<path d="M499 252.5V241.25H504.25" stroke="#6473EE" stroke-width="1.5" stroke-linecap="round" stroke-linejoin="round"/>
<path d="M504.25 252.5V236.75H509.5V252.5" stroke="#6473EE" stroke-width="1.5" stroke-linecap="round" stroke-linejoin="round"/>
</g>
<circle cx="502" cy="245" r="19.5" stroke="#6473EE"/>
<circle cx="547" cy="276" r="19.5" stroke="#6473EE"/>
<g clip-path="url(#clip4_1106_3791)">
<path d="M550.75 285H540.25C540.051 285 539.86 284.921 539.72 284.78C539.579 284.64 539.5 284.449 539.5 284.25V270.75C539.5 270.551 539.579 270.36 539.72 270.22C539.86 270.079 540.051 270 540.25 270H547.75L551.5 273.75V284.25C551.5 284.449 551.421 284.64 551.28 284.78C551.14 284.921 550.949 285 550.75 285Z" stroke="#6473EE" stroke-width="1.5" stroke-linecap="round" stroke-linejoin="round"/>
<path d="M542.5 270V267.75C542.5 267.551 542.579 267.36 542.72 267.22C542.86 267.079 543.051 267 543.25 267H550.75L554.5 270.75V281.25C554.5 281.449 554.421 281.64 554.28 281.78C554.14 281.921 553.949 282 553.75 282H551.5" stroke="#6473EE" stroke-width="1.5" stroke-linecap="round" stroke-linejoin="round"/>
<path d="M543.25 278.25H547.75" stroke="#6473EE" stroke-width="1.5" stroke-linecap="round" stroke-linejoin="round"/>
<path d="M543.25 281.25H547.75" stroke="#6473EE" stroke-width="1.5" stroke-linecap="round" stroke-linejoin="round"/>
</g>
<circle cx="519" cy="322" r="19.5" stroke="#6473EE"/>
<g clip-path="url(#clip5_1106_3791)">
<path d="M512.25 319.75H509.25C508.836 319.75 508.5 320.086 508.5 320.5V323.5C508.5 323.914 508.836 324.25 509.25 324.25H512.25C512.664 324.25 513 323.914 513 323.5V320.5C513 320.086 512.664 319.75 512.25 319.75Z" stroke="#6473EE" stroke-width="1.5" stroke-linecap="round" stroke-linejoin="round"/>
<path d="M526.5 313.75H522C521.586 313.75 521.25 314.086 521.25 314.5V319C521.25 319.414 521.586 319.75 522 319.75H526.5C526.914 319.75 527.25 319.414 527.25 319V314.5C527.25 314.086 526.914 313.75 526.5 313.75Z" stroke="#6473EE" stroke-width="1.5" stroke-linecap="round" stroke-linejoin="round"/>
<path d="M526.5 324.25H522C521.586 324.25 521.25 324.586 521.25 325V329.5C521.25 329.914 521.586 330.25 522 330.25H526.5C526.914 330.25 527.25 329.914 527.25 329.5V325C527.25 324.586 526.914 324.25 526.5 324.25Z" stroke="#6473EE" stroke-width="1.5" stroke-linecap="round" stroke-linejoin="round"/>
<path d="M513 322H517.5" stroke="#6473EE" stroke-width="1.5" stroke-linecap="round" stroke-linejoin="round"/>
<path d="M521.25 327.25H519C518.602 327.25 518.221 327.092 517.939 326.811C517.658 326.529 517.5 326.148 517.5 325.75V318.25C517.5 317.852 517.658 317.471 517.939 317.189C518.221 316.908 518.602 316.75 519 316.75H521.25" stroke="#6473EE" stroke-width="1.5" stroke-linecap="round" stroke-linejoin="round"/>
</g>
<g clip-path="url(#clip6_1106_3791)">
<path d="M321 263C325.556 263 329.25 260.985 329.25 258.5C329.25 256.015 325.556 254 321 254C316.444 254 312.75 256.015 312.75 258.5C312.75 260.985 316.444 263 321 263Z" stroke="#33C8C3" stroke-width="1.5" stroke-linecap="round" stroke-linejoin="round"/>
<path d="M312.75 258.5V263C312.75 265.485 316.444 267.5 321 267.5C325.556 267.5 329.25 265.485 329.25 263V258.5" stroke="#33C8C3" stroke-width="1.5" stroke-linecap="round" stroke-linejoin="round"/>
<path d="M312.75 263V267.5C312.75 269.985 316.444 272 321 272C325.556 272 329.25 269.985 329.25 267.5V263" stroke="#33C8C3" stroke-width="1.5" stroke-linecap="round" stroke-linejoin="round"/>
</g>
<g clip-path="url(#clip7_1106_3791)">
<path d="M321 295C325.556 295 329.25 292.985 329.25 290.5C329.25 288.015 325.556 286 321 286C316.444 286 312.75 288.015 312.75 290.5C312.75 292.985 316.444 295 321 295Z" stroke="#33C8C3" stroke-width="1.5" stroke-linecap="round" stroke-linejoin="round"/>
<path d="M312.75 290.5V295C312.75 297.485 316.444 299.5 321 299.5C325.556 299.5 329.25 297.485 329.25 295V290.5" stroke="#33C8C3" stroke-width="1.5" stroke-linecap="round" stroke-linejoin="round"/>
<path d="M312.75 295V299.5C312.75 301.985 316.444 304 321 304C325.556 304 329.25 301.985 329.25 299.5V295" stroke="#33C8C3" stroke-width="1.5" stroke-linecap="round" stroke-linejoin="round"/>
</g>
<g clip-path="url(#clip8_1106_3791)">
<path d="M321 327C325.556 327 329.25 324.985 329.25 322.5C329.25 320.015 325.556 318 321 318C316.444 318 312.75 320.015 312.75 322.5C312.75 324.985 316.444 327 321 327Z" stroke="#33C8C3" stroke-width="1.5" stroke-linecap="round" stroke-linejoin="round"/>
<path d="M312.75 322.5V327C312.75 329.485 316.444 331.5 321 331.5C325.556 331.5 329.25 329.485 329.25 327V322.5" stroke="#33C8C3" stroke-width="1.5" stroke-linecap="round" stroke-linejoin="round"/>
<path d="M312.75 327V331.5C312.75 333.985 316.444 336 321 336C325.556 336 329.25 333.985 329.25 331.5V327" stroke="#33C8C3" stroke-width="1.5" stroke-linecap="round" stroke-linejoin="round"/>
</g>
<path d="M337 264C343.137 270 362.328 282 390 282" stroke="#33C8C3" stroke-width="0.977832" stroke-dasharray="1.96 1.96"/>
<path d="M337 327C343.137 321 362.328 309 390 309" stroke="#33C8C3" stroke-width="0.977832" stroke-dasharray="1.96 1.96"/>
<path d="M338 296H389" stroke="#33C8C3" stroke-width="0.977832" stroke-dasharray="1.96 1.96"/>
<path d="M450.5 285.5C463.833 284.333 490.8 278 492 262" stroke="#6473EE" stroke-width="0.977832" stroke-dasharray="1.96 1.96"/>
<path d="M451 307C468 323 486 303 501 329" stroke="#6473EE" stroke-width="0.977832" stroke-dasharray="1.96 1.96"/>
<path d="M450 293.454C453.186 297.469 463.18 304.605 477.669 301.026C495.779 296.552 509.5 271.499 528.5 282.501" stroke="#6473EE" stroke-width="0.977832" stroke-dasharray="1.96 1.96"/>
<defs>
<filter id="filter0_d_1106_3791" x="404.163" y="27.1562" width="41.5172" height="41.5153" filterUnits="userSpaceOnUse" color-interpolation-filters="sRGB">
<feFlood flood-opacity="0" result="BackgroundImageFix"/>
<feColorMatrix in="SourceAlpha" type="matrix" values="0 0 0 0 0 0 0 0 0 0 0 0 0 0 0 0 0 0 127 0" result="hardAlpha"/>
<feOffset dy="2.30641"/>
<feGaussianBlur stdDeviation="5.76603"/>
<feColorMatrix type="matrix" values="0 0 0 0 0 0 0 0 0 0 0 0 0 0 0 0 0 0 0.1 0"/>
<feBlend mode="normal" in2="BackgroundImageFix" result="effect1_dropShadow_1106_3791"/>
<feBlend mode="normal" in="SourceGraphic" in2="effect1_dropShadow_1106_3791" result="shape"/>
</filter>
<linearGradient id="paint0_linear_1106_3791" x1="425.488" y1="45.3828" x2="425.488" y2="214.896" gradientUnits="userSpaceOnUse">
<stop stop-color="#6473EE"/>
<stop offset="1" stop-color="#6473EE" stop-opacity="0"/>
</linearGradient>
<clipPath id="clip0_1106_3791">
<rect x="287" width="277" height="153" rx="12" fill="white"/>
</clipPath>
<clipPath id="clip1_1106_3791">
<rect y="295" width="268" height="331" rx="12" fill="white"/>
</clipPath>
<clipPath id="clip2_1106_3791">
<rect width="40" height="40" fill="white" transform="translate(400 281)"/>
</clipPath>
<clipPath id="clip3_1106_3791">
<rect width="24" height="24" fill="white" transform="translate(490 233)"/>
</clipPath>
<clipPath id="clip4_1106_3791">
<rect width="24" height="24" fill="white" transform="translate(535 264)"/>
</clipPath>
<clipPath id="clip5_1106_3791">
<rect width="24" height="24" fill="white" transform="translate(507 310)"/>
</clipPath>
<clipPath id="clip6_1106_3791">
<rect width="24" height="24" fill="white" transform="translate(309 251)"/>
</clipPath>
<clipPath id="clip7_1106_3791">
<rect width="24" height="24" fill="white" transform="translate(309 283)"/>
</clipPath>
<clipPath id="clip8_1106_3791">
<rect width="24" height="24" fill="white" transform="translate(309 315)"/>
</clipPath>
</defs>
</svg>
