<?xml version="1.0" encoding="utf-8"?>
<!-- Generator: Adobe Illustrator 16.0.0, SVG Export Plug-In . SVG Version: 6.00 Build 0)  -->
<!DOCTYPE svg PUBLIC "-//W3C//DTD SVG 1.1//EN" "http://www.w3.org/Graphics/SVG/1.1/DTD/svg11.dtd">
<svg version="1.1" id="Layer_1" xmlns="http://www.w3.org/2000/svg" xmlns:xlink="http://www.w3.org/1999/xlink" x="0px" y="0px"
	 width="454.477px" height="431.98px" viewBox="0 0 454.477 431.98" enable-background="new 0 0 454.477 431.98"
	 xml:space="preserve">
<rect id="backgroundrect" fill="none" width="454.477" height="431.98"/>
<g>
	<title>Layer 1</title>
	<g id="Background_Complete" display="none">
		<g id="svg_1" display="inline">
			<circle id="svg_2" fill="#F0F0F0" cx="57.511" cy="61.411" r="22.839"/>
			<g id="svg_3">
				<path id="svg_4" fill="#E0E0E0" d="M68.008,62.113c0,0.066-1.143,0.127-3.027,0.173c-1.883,0.046-4.508,0.078-7.47,0.085
					l-0.258,0.001v-0.259c0-0.475-0.001-0.974-0.002-1.481c0-3.309,0.029-6.303,0.076-8.471c0.047-2.167,0.112-3.508,0.184-3.508
					c0.072,0,0.137,1.341,0.184,3.508c0.047,2.168,0.076,5.163,0.076,8.471c0,0.507-0.001,1.006-0.002,1.481l-0.258-0.258
					c2.962,0.008,5.587,0.04,7.47,0.085C66.865,61.986,68.008,62.047,68.008,62.113z"/>
			</g>
			<g id="svg_5">
				<ellipse id="svg_6" fill="#E0E0E0" cx="57.582" cy="44.242" rx="0.26" ry="1.918"/>
			</g>
			<g id="svg_7">
				
					<ellipse id="svg_8" transform="matrix(-0.7071 -0.7071 0.7071 -0.7071 80.7275 126.9208)" fill="#E0E0E0" cx="66.65" cy="46.741" rx="0.261" ry="1.891"/>
			</g>
			<g id="svg_9">
				<path id="svg_10" fill="#E0E0E0" d="M74.072,52.051c0.065,0.13-0.633,0.609-1.516,1.147c-0.883,0.536-1.63,0.935-1.716,0.817
					c-0.083-0.114,0.541-0.713,1.445-1.262C73.189,52.203,74.009,51.924,74.072,52.051z"/>
			</g>
			<g id="svg_11">
				<ellipse id="svg_12" fill="#E0E0E0" cx="75.022" cy="61.915" rx="2.616" ry="0.26"/>
			</g>
			<g id="svg_13">
				<ellipse id="svg_14" fill="#E0E0E0" cx="38.891" cy="61.566" rx="2.471" ry="0.26"/>
			</g>
			<g id="svg_15">
				<path id="svg_16" fill="#E0E0E0" d="M43.927,68.91c0.094,0.109-0.71,0.906-1.796,1.781c-1.087,0.875-2.037,1.491-2.123,1.376
					c-0.086-0.115,0.718-0.913,1.796-1.781C42.882,69.417,43.833,68.801,43.927,68.91z"/>
			</g>
			<g id="svg_17">
				<path id="svg_18" fill="#E0E0E0" d="M50.256,74.589c0.118,0.087-0.458,1.066-1.174,2.261c-0.719,1.193-1.313,2.162-1.445,2.098
					c-0.127-0.06,0.266-1.149,0.999-2.366C49.366,75.363,50.144,74.505,50.256,74.589z"/>
			</g>
			<g id="svg_19">
				<ellipse id="svg_20" fill="#E0E0E0" cx="57.582" cy="79.298" rx="0.261" ry="2.616"/>
			</g>
			<g id="svg_21">
				<path id="svg_22" fill="#E0E0E0" d="M68.858,78.428c-0.075,0.118-1.132-0.432-2.23-1.393c-1.102-0.957-1.791-1.929-1.685-2.02
					c0.111-0.097,0.955,0.697,2.027,1.627C68.037,77.577,68.939,78.305,68.858,78.428z"/>
			</g>
			<g id="svg_23">
				
					<ellipse id="svg_24" transform="matrix(0.7066 -0.7076 0.7076 0.7066 -29.0382 72.1751)" fill="#E0E0E0" cx="72.522" cy="71.107" rx="0.26" ry="2.302"/>
			</g>
			<g id="svg_25">
				
					<ellipse id="svg_26" transform="matrix(0.7071 -0.7071 0.7071 0.7071 -25.1734 45.4393)" fill="#E0E0E0" cx="42.263" cy="53.107" rx="0.26" ry="2.014"/>
			</g>
			<g id="svg_27">
				
					<ellipse id="svg_28" transform="matrix(0.7057 -0.7085 0.7085 0.7057 -18.4071 48.2031)" fill="#E0E0E0" cx="48.819" cy="46.259" rx="0.26" ry="1.973"/>
			</g>
		</g>
		<g id="svg_29" display="inline">
			<g id="svg_30">
				<g id="svg_31">
					<path id="svg_32" fill="#F0F0F0" d="M105.065,411.611c13.723-8.002,18.05-24.592,18.778-39.763
						c0.122-2.533,0.618-5.173-0.401-7.487c-1.02-2.313-3.698-4.059-6.047-3.18c-1.948,0.729-2.944,2.843-4.142,4.563
						c-1.593,2.285-3.835,4.102-6.387,5.17c-1.677,0.703-3.708,1.049-5.224,0.043c-2.08-1.381-2.089-4.41-1.868-6.922
						c0.414-4.68,0.827-9.357,1.241-14.037c0.222-2.51,0.439-5.074-0.146-7.521c-0.585-2.448-2.13-4.805-4.464-5.67
						c-2.335-0.865-5.403,0.27-6.109,2.688c-0.294,1.006-0.173,2.086-0.328,3.121c-0.155,1.037-0.736,2.151-1.75,2.36
						c-1.026,0.212-1.973-0.583-2.664-1.38c-2.384-2.749-3.875-6.16-5.253-9.545c-1.377-3.385-2.7-6.842-4.825-9.801
						s-5.199-5.418-8.779-5.918c-3.581-0.498-7.596,1.408-8.795,4.863c-1.202,3.467,0.569,7.229,2.582,10.28
						c2.986,4.526,6.623,8.61,10.76,12.086c0.746,0.627,1.554,1.306,1.78,2.26c0.408,1.72-1.315,3.253-3.013,3.667
						c-1.924,0.471-3.939,0.108-5.917,0.18c-1.978,0.068-4.17,0.758-5.063,2.549c-1.24,2.482,0.687,5.351,2.655,7.285
						c3.94,3.877,8.542,7.063,13.541,9.373c1.792,0.828,3.688,1.58,5.072,3.002c1.383,1.42-1.306,5.826-2.352,7.521
						c-1.046,1.698,0,0-1.906-0.519c-1.905-0.518-3.552-1.711-5.339-2.559c-3.345-1.586-7.822-1.714-10.278,1.088
						c-1.614,1.842-1.966,4.563-1.423,6.959c0.542,2.398,1.868,4.534,3.298,6.521c5,6.945,11.653,12.752,19.433,16.188
						C89.511,412.507,96.869,413.869,105.065,411.611"/>
				</g>
			</g>
			<g id="svg_33">
				<g id="svg_34">
					<g id="svg_35">
						<path id="svg_36" fill="#E0E0E0" d="M104.343,422.845c-0.056-6.039-0.789-13.225-2.404-21.038
							c-1.6-7.817-4.064-16.243-6.945-24.966c-0.728-2.178-1.448-4.33-2.156-6.45c-0.713-2.115-1.419-4.214-2.237-6.224
							c-1.619-4.026-3.482-7.773-5.362-11.275c-1.879-3.505-3.79-6.762-5.598-9.794c-1.816-3.029-3.562-5.821-5.262-8.298
							c-3.385-4.969-6.584-8.646-8.883-11.079c-1.147-1.222-2.068-2.142-2.7-2.755c-0.305-0.291-0.544-0.521-0.724-0.693
							c-0.165-0.152-0.252-0.229-0.258-0.225c-0.006,0.006,0.07,0.094,0.224,0.259c0.172,0.181,0.401,0.421,0.691,0.728
							c0.61,0.635,1.51,1.572,2.635,2.812c2.255,2.47,5.403,6.165,8.744,11.144c1.678,2.481,3.403,5.276,5.202,8.311
							c1.793,3.039,3.689,6.299,5.553,9.8c1.864,3.499,3.711,7.237,5.316,11.243c0.81,2,1.508,4.08,2.221,6.201
							c0.708,2.119,1.426,4.271,2.154,6.447c2.877,8.717,5.348,17.115,6.967,24.905c1.632,7.785,2.396,14.938,2.494,20.954"/>
					</g>
				</g>
			</g>
			<g id="svg_37">
				<g id="svg_38">
					<g id="svg_39">
						<path id="svg_40" fill="#E0E0E0" d="M90.469,364.139c0.031,0.008,0.147-0.367,0.333-1.052c0.189-0.684,0.43-1.68,0.708-2.916
							c0.561-2.473,1.218-5.912,1.929-9.707c0.711-3.799,1.416-7.219,2.012-9.674c0.295-1.229,0.543-2.223,0.724-2.906
							c0.177-0.686,0.26-1.068,0.23-1.078c-0.031-0.01-0.172,0.355-0.402,1.025c-0.234,0.67-0.532,1.652-0.868,2.875
							c-0.681,2.443-1.439,5.869-2.15,9.67c-0.692,3.746-1.317,7.137-1.795,9.727c-0.223,1.169-0.412,2.152-0.563,2.943
							C90.496,363.742,90.438,364.132,90.469,364.139z"/>
					</g>
				</g>
			</g>
			<g id="svg_41">
				<g id="svg_42">
					<g id="svg_43">
						<path id="svg_44" fill="#E0E0E0" d="M58.671,355.453c-0.003,0.031,0.452,0.123,1.275,0.26
							c0.822,0.142,2.014,0.341,3.478,0.634c2.932,0.562,6.954,1.479,11.347,2.688c4.393,1.215,8.321,2.483,11.136,3.483
							c1.412,0.489,2.543,0.918,3.327,1.209c0.783,0.294,1.222,0.44,1.235,0.412c0.013-0.03-0.403-0.235-1.167-0.582
							c-0.765-0.343-1.881-0.817-3.282-1.351c-2.794-1.084-6.72-2.406-11.126-3.627c-4.407-1.209-8.456-2.08-11.412-2.561
							c-1.476-0.252-2.679-0.402-3.512-0.488C59.137,355.451,58.676,355.419,58.671,355.453z"/>
					</g>
				</g>
			</g>
			<g id="svg_45">
				<g id="svg_46">
					<g id="svg_47">
						<path id="svg_48" fill="#E0E0E0" d="M101.59,401.18c0.014,0.008,0.101-0.121,0.253-0.376c0.175-0.305,0.389-0.674,0.648-1.123
							c0.559-0.979,1.33-2.413,2.259-4.199c1.862-3.572,4.278-8.586,6.87-14.154c2.594-5.572,4.96-10.603,6.745-14.207
							c0.873-1.752,1.592-3.193,2.126-4.266c0.229-0.465,0.417-0.85,0.572-1.164c0.126-0.268,0.186-0.412,0.172-0.421
							c-0.015-0.007-0.101,0.122-0.254,0.376c-0.175,0.305-0.389,0.674-0.648,1.123c-0.558,0.979-1.33,2.413-2.259,4.199
							c-1.862,3.57-4.278,8.586-6.871,14.158c-2.592,5.568-4.959,10.599-6.743,14.205c-0.874,1.75-1.592,3.192-2.126,4.264
							c-0.229,0.465-0.417,0.85-0.572,1.164C101.636,401.027,101.576,401.171,101.59,401.18z"/>
					</g>
				</g>
			</g>
			<g id="svg_49">
				<g id="svg_50">
					<g id="svg_51">
						<path id="svg_52" fill="#E0E0E0" d="M59.813,383.826c-0.005,0.016,0.137,0.088,0.412,0.211
							c0.326,0.139,0.727,0.312,1.212,0.521c1.121,0.468,2.633,1.099,4.473,1.866c3.776,1.576,8.968,3.813,14.701,6.295
							c5.734,2.482,10.951,4.674,14.762,6.173c1.905,0.75,3.452,1.342,4.53,1.729c0.499,0.176,0.91,0.318,1.244,0.438
							c0.286,0.095,0.44,0.138,0.445,0.122c0.005-0.017-0.137-0.087-0.412-0.211c-0.326-0.14-0.726-0.312-1.212-0.521
							c-1.121-0.468-2.632-1.099-4.473-1.865c-3.776-1.576-8.968-3.815-14.703-6.297c-5.733-2.48-10.949-4.674-14.76-6.172
							c-1.905-0.75-3.452-1.342-4.531-1.729c-0.499-0.176-0.909-0.321-1.243-0.438C59.972,383.853,59.819,383.811,59.813,383.826z"
							/>
					</g>
				</g>
			</g>
		</g>
		<g id="svg_53" display="inline">
			<g id="svg_54">
				<g id="svg_55">
					<rect id="svg_56" x="393.127" y="379.003" fill="#E0E0E0" width="6.119" height="43.443"/>
				</g>
				<g id="svg_57">
					<rect id="svg_58" x="371.231" y="379.003" fill="#E0E0E0" width="6.117" height="43.443"/>
				</g>
				<g id="svg_59">
					<rect id="svg_60" x="316.26" y="379.003" fill="#E0E0E0" width="6.119" height="43.443"/>
				</g>
				<g id="svg_61">
					<rect id="svg_62" x="297.426" y="379.003" fill="#E0E0E0" width="6.119" height="43.443"/>
				</g>
				<g id="svg_63">
					<g id="svg_64">
						<path id="svg_65" fill="#EBEBEB" d="M317.366,304.352c0,0-16.711-4.827-21.713,2.144c-5.001,6.969-5.531,74.119-5.531,74.119
							s32.361,0.59,32.957,0C323.676,380.025,317.366,304.352,317.366,304.352z"/>
					</g>
					<g id="svg_66">
						<path id="svg_67" fill="#EBEBEB" d="M412.209,372.389l-1.482-127.458c-1.037-15.391-12.207-17.614-13.842-18.543
							c-6.857-3.896-72.271-6.367-77.652,8.714s0,133.737,0,133.737L412.209,372.389z"/>
					</g>
					<g id="svg_68">
						<path id="svg_69" fill="#EBEBEB" d="M412.168,368.839c0,0-16.479-24.305-35.84-25.1c-19.363-0.796-61.1,0-61.1,0
							s-18.502,0.701-19.793,23.617v13.52h116.732V368.839L412.168,368.839z"/>
					</g>
					<g id="svg_70">
						<g id="svg_71">
							<path id="svg_72" fill="#F0F0F0" d="M411.674,304.451c0,0-27.725-7.173-32.736,2.264c-5.014,9.438-5.898,74.447-5.898,74.447
								s40.031,1.476,40.127-0.213C413.262,379.263,411.674,304.451,411.674,304.451z"/>
						</g>
						<g id="svg_73">
							<path id="svg_74" fill="#E0E0E0" d="M413.17,304.143c0,0-18.311-4.711-23.311,2.259c-5.002,6.971-6.318,75.084-6.318,75.084
								s29.221,0.862,29.816,0.273C413.956,381.169,413.17,304.143,413.17,304.143z"/>
						</g>
					</g>
				</g>
			</g>
			<g id="svg_75">
				<g id="svg_76">
					<path id="svg_77" fill="#E0E0E0" d="M398.903,302.524c-0.01,0-0.025-0.108-0.047-0.321c-0.021-0.242-0.049-0.556-0.082-0.949
						c-0.064-0.869-0.156-2.092-0.271-3.648c-0.215-3.205-0.52-7.784-0.896-13.428c-0.359-5.682-0.787-12.43-1.262-19.918
						c-0.23-3.75-0.475-7.686-0.729-11.764c-0.301-4.066-0.285-8.351-1.508-12.473c-0.629-2.039-1.576-3.967-2.967-5.518
						c-1.354-1.58-2.945-2.918-4.645-4.016c-3.404-2.199-7.145-3.588-10.799-4.275c-1.832-0.354-3.646-0.448-5.426-0.522
						c-1.777-0.069-3.504-0.137-5.172-0.202c-3.338-0.105-6.445-0.166-9.285-0.191c-5.68-0.045-10.273,0.076-13.441,0.257
						c-1.586,0.09-2.814,0.177-3.646,0.259c-0.395,0.033-0.705,0.059-0.947,0.079c-0.215,0.017-0.324,0.019-0.326,0.01
						c0-0.009,0.107-0.03,0.32-0.063c0.238-0.032,0.551-0.075,0.941-0.131c0.83-0.115,2.061-0.234,3.645-0.355
						c3.172-0.244,7.771-0.42,13.457-0.422c2.844,0.001,5.957,0.04,9.297,0.128c1.672,0.058,3.398,0.114,5.178,0.176
						c1.773,0.065,3.631,0.154,5.492,0.511c3.721,0.687,7.518,2.084,10.992,4.318c1.734,1.116,3.363,2.48,4.762,4.105
						c1.438,1.604,2.426,3.61,3.07,5.703c1.252,4.232,1.223,8.533,1.52,12.592c0.24,4.08,0.475,8.015,0.695,11.766
						c0.434,7.492,0.822,14.242,1.15,19.925c0.309,5.647,0.557,10.229,0.73,13.438c0.074,1.561,0.131,2.785,0.172,3.654
						c0.014,0.396,0.023,0.709,0.031,0.953C398.915,302.414,398.911,302.523,398.903,302.524z"/>
				</g>
			</g>
			<g id="svg_78">
				<g id="svg_79">
					<path id="svg_80" fill="#E0E0E0" d="M399.79,247.423c0.006,0.148-1.006,0.302-2.23,0.539c-1.227,0.231-2.221,0.463-2.27,0.324
						c-0.049-0.132,0.9-0.596,2.172-0.836C398.731,247.205,399.786,247.285,399.79,247.423z"/>
				</g>
			</g>
			<g id="svg_81">
				<g id="svg_82">
					<path id="svg_83" fill="#E0E0E0" d="M402.292,250.457c-0.025,0.145-1.498-0.004-3.307-0.154
						c-1.813-0.154-3.285-0.256-3.287-0.403c-0.002-0.14,1.492-0.271,3.33-0.114C400.866,249.938,402.317,250.318,402.292,250.457z"
						/>
				</g>
			</g>
			<g id="svg_84">
				<g id="svg_85">
					
						<ellipse id="svg_86" transform="matrix(0.0563 -0.9984 0.9984 0.0563 103.6676 655.9038)" fill="#E0E0E0" cx="398.8" cy="273.113" rx="0.26" ry="1.918"/>
				</g>
			</g>
			<g id="svg_87">
				<g id="svg_88">
					<g id="svg_89">
						<path id="svg_90" fill="#E0E0E0" d="M372.043,264.507c0.047,0.088-0.879,0.181-1.465,1.297
							c-0.271,0.527-0.436,1.298-0.135,2.004c0.275,0.713,1.113,1.189,2.016,1.174c0.9-0.011,1.725-0.516,1.979-1.236
							c0.277-0.715,0.09-1.479-0.195-1.998c-0.621-1.099-1.551-1.16-1.506-1.25c0-0.021,0.215-0.061,0.58,0.058
							c0.359,0.112,0.854,0.426,1.238,1.001c0.365,0.566,0.648,1.439,0.332,2.357c-0.301,0.938-1.35,1.586-2.42,1.59
							c-1.068,0.029-2.137-0.586-2.467-1.514c-0.346-0.908-0.09-1.789,0.258-2.367c0.367-0.588,0.852-0.916,1.209-1.039
							C371.827,264.455,372.042,264.485,372.043,264.507z"/>
					</g>
				</g>
				<g id="svg_91">
					<g id="svg_92">
						<path id="svg_93" fill="#E0E0E0" d="M374.51,263.916c0.018,0.056-0.617,0.314-1.711,0.431
							c-1.088,0.118-2.641,0.021-4.23-0.544c-1.59-0.572-2.852-1.482-3.617-2.266c-0.773-0.783-1.1-1.386-1.051-1.418
							c0.066-0.053,0.492,0.463,1.301,1.146c0.801,0.688,2.029,1.5,3.543,2.046c1.514,0.538,2.979,0.688,4.035,0.667
							C373.836,263.96,374.491,263.832,374.51,263.916z"/>
					</g>
				</g>
				<g id="svg_94">
					<g id="svg_95">
						<path id="svg_96" fill="#E0E0E0" d="M368.301,280.623c-0.064,0.014-0.309-0.711-0.578-1.924
							c-0.252-1.201-0.557-2.96-0.129-4.873c0.451-1.929,1.748-3.346,2.896-3.91c1.17-0.586,2.016-0.399,1.994-0.358
							c0.012,0.101-0.791,0.062-1.814,0.683c-1.01,0.596-2.154,1.934-2.568,3.704c-0.4,1.783-0.174,3.485-0.016,4.69
							C368.258,279.848,368.375,280.606,368.301,280.623z"/>
					</g>
				</g>
				<g id="svg_97">
					<g id="svg_98">
						<path id="svg_99" fill="#E0E0E0" d="M379.905,275.089c-0.014,0.056-0.58,0-1.406-0.391c-0.822-0.383-1.863-1.162-2.66-2.316
							c-0.793-1.155-1.148-2.407-1.215-3.313c-0.068-0.91,0.082-1.461,0.139-1.451c0.086,0.006,0.07,0.555,0.229,1.402
							c0.15,0.846,0.537,1.986,1.275,3.066c0.746,1.076,1.674,1.844,2.41,2.289C379.411,274.826,379.93,275.007,379.905,275.089z"/>
					</g>
				</g>
			</g>
			<g id="svg_100">
				<g id="svg_101">
					<g id="svg_102">
						<path id="svg_103" fill="#E0E0E0" d="M341.18,264.507c0.047,0.088-0.879,0.181-1.465,1.297
							c-0.271,0.527-0.434,1.298-0.135,2.004c0.275,0.713,1.115,1.189,2.016,1.174c0.9-0.011,1.725-0.516,1.979-1.236
							c0.275-0.715,0.09-1.479-0.197-1.998c-0.619-1.099-1.549-1.16-1.504-1.25c0-0.021,0.215-0.061,0.578,0.058
							c0.361,0.112,0.855,0.426,1.242,1.001c0.363,0.566,0.646,1.439,0.33,2.357c-0.301,0.938-1.35,1.586-2.42,1.59
							c-1.068,0.029-2.139-0.586-2.469-1.514c-0.344-0.908-0.088-1.789,0.258-2.367c0.369-0.588,0.854-0.916,1.209-1.039
							C340.963,264.455,341.178,264.485,341.18,264.507z"/>
					</g>
				</g>
				<g id="svg_104">
					<g id="svg_105">
						<path id="svg_106" fill="#E0E0E0" d="M343.647,263.916c0.018,0.056-0.617,0.314-1.713,0.431
							c-1.088,0.118-2.641,0.021-4.23-0.544c-1.588-0.572-2.852-1.482-3.617-2.266c-0.771-0.783-1.098-1.386-1.051-1.418
							c0.068-0.053,0.494,0.463,1.301,1.146c0.803,0.688,2.029,1.5,3.543,2.046c1.516,0.538,2.98,0.688,4.035,0.667
							C342.971,263.96,343.627,263.832,343.647,263.916z"/>
					</g>
				</g>
				<g id="svg_107">
					<g id="svg_108">
						<path id="svg_109" fill="#E0E0E0" d="M337.438,280.623c-0.064,0.014-0.311-0.711-0.578-1.924
							c-0.25-1.201-0.559-2.96-0.127-4.873c0.447-1.929,1.746-3.346,2.895-3.91c1.17-0.586,2.016-0.399,1.994-0.358
							c0.012,0.101-0.791,0.062-1.814,0.683c-1.01,0.596-2.154,1.934-2.566,3.704c-0.402,1.783-0.176,3.485-0.018,4.69
							C337.397,279.848,337.512,280.606,337.438,280.623z"/>
					</g>
				</g>
				<g id="svg_110">
					<g id="svg_111">
						<path id="svg_112" fill="#E0E0E0" d="M349.042,275.089c-0.012,0.056-0.58,0-1.406-0.391c-0.822-0.383-1.863-1.162-2.662-2.316
							c-0.793-1.155-1.148-2.407-1.213-3.313c-0.068-0.91,0.082-1.461,0.139-1.451c0.086,0.006,0.068,0.555,0.229,1.402
							c0.152,0.846,0.537,1.986,1.275,3.066c0.746,1.076,1.674,1.844,2.408,2.289C348.547,274.826,349.067,275.007,349.042,275.089z
							"/>
					</g>
				</g>
			</g>
			<g id="svg_113">
				<g id="svg_114">
					<path id="svg_115" fill="#E0E0E0" d="M317.987,302.236c0.035,0.001,0.045,0.583,0.031,1.633
						c-0.021,1.141-0.053,2.637-0.088,4.444c-0.086,3.751-0.199,8.935-0.271,14.657c-0.07,5.726-0.086,10.91-0.094,14.662
						c-0.01,1.808-0.018,3.305-0.023,4.445c-0.014,1.049-0.037,1.629-0.072,1.631c-0.037,0-0.082-0.58-0.131-1.629
						s-0.1-2.566-0.141-4.443c-0.086-3.754-0.131-8.941-0.061-14.674c0.072-5.729,0.246-10.912,0.426-14.664
						c0.09-1.875,0.178-3.391,0.254-4.438C317.891,302.813,317.95,302.234,317.987,302.236z"/>
				</g>
			</g>
			<g id="svg_116">
				<g id="svg_117">
					<path id="svg_118" fill="#E0E0E0" d="M375.506,343.917c0,0.01-0.094,0.018-0.273,0.024c-0.215,0.005-0.48,0.011-0.813,0.021
						c-0.75,0.006-1.793,0.014-3.113,0.023c-2.746-0.002-6.648-0.005-11.455-0.008c-4.848-0.021-10.602-0.049-16.986-0.078
						c-3.197-0.021-6.555-0.042-10.031-0.063s-7.074-0.02-10.738,0.283c-3.66,0.301-7.215,0.928-10.484,2.043
						c-3.268,1.109-6.254,2.69-8.713,4.686c-1.23,0.994-2.326,2.092-3.264,3.261c-0.465,0.586-0.902,1.181-1.283,1.804
						c-0.404,0.605-0.757,1.229-1.088,1.854c-1.348,2.482-2.125,5.025-2.624,7.369c-0.956,4.725-0.761,8.679-0.565,11.357
						c0.104,1.346,0.225,2.387,0.313,3.094c0.038,0.328,0.067,0.592,0.093,0.804c0.02,0.182,0.023,0.274,0.016,0.276
						c-0.01,0.002-0.031-0.09-0.067-0.269c-0.037-0.209-0.085-0.472-0.144-0.798c-0.125-0.702-0.277-1.743-0.412-3.092
						c-0.258-2.684-0.515-6.656,0.406-11.446c0.48-2.378,1.25-4.965,2.604-7.498c0.332-0.638,0.688-1.272,1.096-1.892
						c0.383-0.635,0.826-1.248,1.301-1.85c0.951-1.201,2.064-2.326,3.316-3.349c2.502-2.046,5.537-3.661,8.852-4.796
						c3.32-1.139,6.918-1.774,10.605-2.077c3.693-0.306,7.309-0.304,10.787-0.276c3.479,0.033,6.832,0.064,10.029,0.096
						c6.387,0.07,12.139,0.135,16.988,0.188c4.805,0.072,8.707,0.132,11.451,0.173c1.322,0.031,2.363,0.057,3.113,0.073
						c0.332,0.015,0.6,0.022,0.811,0.032C375.415,343.898,375.506,343.908,375.506,343.917z"/>
				</g>
			</g>
		</g>
	</g>
	<g id="Background_Simple" display="none">
		<path id="svg_119" display="inline" fill="#F0F0F0" d="M414.375,285.666c12.369-63.242-30.629-96.636-117.08-105.646
			c-95.216-9.923-63.78-70.286-112.101-103.227C136.877,43.853,0.337,79.649,69.714,231.927
			C139.091,384.205,389.536,412.671,414.375,285.666z"/>
	</g>
	<g id="Floor">
		<g id="svg_120">
			<path id="svg_121" fill="#263238" d="M407.438,422.447c0,0.145-82.184,0.262-183.537,0.262
				c-101.39,0-183.555-0.117-183.555-0.262s82.165-0.26,183.555-0.26C325.256,422.189,407.438,422.304,407.438,422.447z"/>
		</g>
	</g>
	<g id="svg_122">
		<g id="svg_123">
			<g id="svg_124">
				<g id="svg_125">
					<ellipse id="svg_126" fill="#263238" cx="138.248" cy="232.968" rx="14.573" ry="0.261"/>
				</g>
			</g>
			<g id="svg_127">
				<g id="svg_128">
					<ellipse id="svg_129" fill="#263238" cx="137.983" cy="236.719" rx="14.308" ry="0.26"/>
				</g>
			</g>
			<g id="svg_130">
				<g id="svg_131">
					<ellipse id="svg_132" fill="#263238" cx="137.983" cy="240.469" rx="14.308" ry="0.261"/>
				</g>
			</g>
			<g id="svg_133">
				<g id="svg_134">
					<ellipse id="svg_135" fill="#263238" cx="137.983" cy="244.22" rx="14.308" ry="0.261"/>
				</g>
			</g>
			<g id="svg_136">
				<g id="svg_137">
					<ellipse id="svg_138" fill="#263238" cx="137.983" cy="247.971" rx="14.308" ry="0.26"/>
				</g>
			</g>
			<g id="svg_139">
				<g id="svg_140">
					<ellipse id="svg_141" fill="#263238" cx="130.653" cy="251.721" rx="6.979" ry="0.261"/>
				</g>
			</g>
			<g id="svg_142">
				<g id="svg_143">
					<ellipse id="svg_144" fill="#E8505B" cx="134.686" cy="228.866" rx="11.102" ry="0.261"/>
				</g>
			</g>
		</g>
		<g id="svg_145">
			<g id="svg_146">
				<path id="svg_147" fill="#263238" d="M160.542,261.071c0,0-0.017-0.278-0.025-0.795c-0.006-0.538-0.015-1.295-0.025-2.271
					c-0.014-2.002-0.033-4.896-0.058-8.569c-0.028-7.374-0.067-17.877-0.114-30.502l0.222,0.222
					c-13.296,0.012-29.123,0.024-46.067,0.038c-0.062,0.056,0.489-0.489,0.256-0.253v0.012v0.021v0.045v0.091v0.181v0.358v0.718
					v1.432c0,0.951,0,1.9,0,2.844c0,1.889-0.001,3.76-0.002,5.613c-0.002,3.705-0.004,7.334-0.006,10.871
					c-0.008,7.069-0.017,13.768-0.024,19.944l-0.228-0.229c13.727,0.049,25.212,0.089,33.292,0.117
					c4.029,0.024,7.208,0.045,9.406,0.06c1.074,0.012,1.907,0.021,2.498,0.026c0.27,0.006,0.481,0.011,0.647,0.014
					C160.46,261.063,160.537,261.067,160.542,261.071c0.004,0.005-0.064,0.009-0.202,0.015c-0.159,0.002-0.363,0.006-0.623,0.013
					c-0.58,0.006-1.398,0.015-2.453,0.026c-2.187,0.015-5.348,0.033-9.354,0.061c-8.117,0.027-19.652,0.066-33.439,0.115h-0.229
					v-0.229c-0.007-6.178-0.015-12.875-0.024-19.945c-0.002-3.537-0.004-7.166-0.006-10.871c0-1.854-0.001-3.725-0.002-5.612
					c0-0.942,0-1.892,0-2.845v-1.432v-0.717v-0.359v-0.18v-0.091v-0.045v-0.022v-0.011c-0.232,0.229,0.316-0.325,0.265-0.269
					c16.944,0.016,32.771,0.027,46.067,0.039h0.223l-0.001,0.223c-0.047,12.684-0.086,23.234-0.114,30.643
					c-0.025,3.653-0.044,6.529-0.058,8.521c-0.011,0.957-0.02,1.7-0.026,2.228C160.558,260.826,160.542,261.071,160.542,261.071z"/>
			</g>
		</g>
	</g>
	<g id="svg_150">
		<g id="svg_151">
			<path id="svg_152" fill="#E8505B" d="M132.037,104.965l22.146-0.144c-0.037-6.522-2.617-13.171-7.123-18.27
				c-5.309-6.006-13.29-9.853-22.936-8.804c-1.054,0.114-2.125,0.282-3.217,0.517c-0.026,0.006-0.051,0.009-0.078,0.015v0.003
				l6.004,26.684L132.037,104.965L132.037,104.965z"/>
		</g>
	</g>
	<g id="svg_153">
		<g id="svg_154">
			<path id="svg_155" fill="#009E76" d="M138.855,132.468c7.789-3.73,14.028-11.076,15.077-21.537
				c0.028-0.28,0.054-0.561,0.074-0.845c0.013-0.18,0.031-0.356,0.041-0.538c0.029-0.528,0.044-1.064,0.046-1.607
				c0-0.025,0.002-0.049,0.002-0.073c0-0.001,0-0.003,0-0.004c0-0.023,0.002-0.044,0.002-0.067h-0.004l0,0l-22.146,0.145
				l-5.204,0.034l-5.824,26.692l-0.007,0.033l0,0c1.87,0.408,3.799,0.602,5.742,0.592
				C130.806,135.271,135.016,134.306,138.855,132.468z"/>
		</g>
	</g>
	<g id="svg_156">
		<g id="svg_157">
			<path id="svg_158" fill="#FFD143" d="M124.069,106.396l-6.004-26.684c-12.217,2.738-21.349,13.641-21.349,26.684
				c0,13.107,9.221,24.056,21.529,26.726l5.824-26.691"/>
		</g>
	</g>
	<g id="svg_162">
		<g id="svg_163">
			<rect id="svg_164" x="58.041" y="224.162" fill="#FF7E33" width="5.992" height="45.23"/>
		</g>
	</g>
	<g id="svg_165">
		<g id="svg_166">
			<rect id="svg_167" x="48.808" y="243.196" fill="#1657AB" width="5.992" height="26.196"/>
		</g>
	</g>
	<g id="svg_168">
		<g id="svg_169">
			<rect id="svg_170" x="39.575" y="239.108" fill="#FF7E33" width="5.992" height="30.284"/>
		</g>
	</g>
	<g id="svg_171">
		<g id="svg_172">
			<rect id="svg_173" x="30.341" y="257.183" fill="#1657AB" width="5.992" height="12.21"/>
		</g>
	</g>
	<g id="svg_174">
		<g id="svg_175">
			<rect id="svg_176" x="76.507" y="214.281" fill="#FF7E33" width="5.992" height="55.111"/>
		</g>
	</g>
	<g id="svg_177">
		<g id="svg_178">
			<rect id="svg_179" x="67.274" y="219.316" fill="#1657AB" width="5.992" height="50.076"/>
		</g>
	</g>
	<g id="svg_180">
		<g id="svg_181">
			<rect id="svg_182" x="94.974" y="208.824" fill="#FF7E33" width="5.992" height="60.568"/>
		</g>
	</g>
	<g id="svg_183">
		<g id="svg_184">
			<rect id="svg_185" x="85.741" y="196.863" fill="#1657AB" width="5.992" height="72.53"/>
		</g>
	</g>
	<g id="svg_186">
		<g id="svg_187">
			<ellipse id="svg_188" fill="#263238" cx="33.53" cy="275.071" rx="2.65" ry="0.26"/>
		</g>
	</g>
	<g id="svg_189">
		<g id="svg_190">
			<ellipse id="svg_191" fill="#263238" cx="42.632" cy="275.071" rx="2.65" ry="0.26"/>
		</g>
	</g>
	<g id="svg_192">
		<g id="svg_193">
			<ellipse id="svg_194" fill="#263238" cx="51.734" cy="275.071" rx="2.65" ry="0.26"/>
		</g>
	</g>
	<g id="svg_195">
		<g id="svg_196">
			<ellipse id="svg_197" fill="#263238" cx="60.836" cy="275.071" rx="2.65" ry="0.26"/>
		</g>
	</g>
	<g id="svg_198">
		<g id="svg_199">
			<ellipse id="svg_200" fill="#263238" cx="69.938" cy="275.071" rx="2.65" ry="0.26"/>
		</g>
	</g>
	<g id="svg_201">
		<g id="svg_202">
			<ellipse id="svg_203" fill="#263238" cx="79.04" cy="275.071" rx="2.65" ry="0.26"/>
		</g>
	</g>
	<g id="svg_204">
		<g id="svg_205">
			<ellipse id="svg_206" fill="#263238" cx="88.142" cy="275.071" rx="2.65" ry="0.26"/>
		</g>
	</g>
	<g id="svg_207">
		<g id="svg_208">
			<ellipse id="svg_209" fill="#263238" cx="97.244" cy="275.071" rx="2.65" ry="0.26"/>
		</g>
	</g>
	<g id="svg_210">
		<g id="svg_211">
			<ellipse id="svg_212" fill="#19437F" cx="88.548" cy="280.401" rx="14.535" ry="0.261"/>
		</g>
	</g>
	<g id="svg_213">
		<g id="svg_214">
			<ellipse id="svg_215" fill="#263238" cx="80.643" cy="283.462" rx="5.1" ry="0.26"/>
		</g>
	</g>
	<g id="svg_216">
		<path id="svg_217" fill="#19437F" d="M86.437,194.234c0-0.022,0.315-0.054,0.83,0.157c0.507,0.205,1.194,0.731,1.604,1.656
			c0.197,0.458,0.331,1.017,0.263,1.62c-0.067,0.601-0.345,1.229-0.827,1.71c-0.929,0.96-2.62,1.456-4.07,0.711
			c-1.424-0.784-1.98-2.43-1.779-3.741c0.087-0.671,0.402-1.269,0.793-1.716c0.4-0.445,0.877-0.745,1.336-0.936
			c0.929-0.381,1.771-0.335,2.296-0.201c0.534,0.136,0.781,0.323,0.769,0.345c-0.019,0.042-0.292-0.077-0.806-0.146
			c-0.506-0.068-1.284-0.049-2.11,0.338c-0.813,0.37-1.672,1.197-1.803,2.381c-0.157,1.142,0.366,2.575,1.548,3.215
			c1.186,0.622,2.678,0.221,3.485-0.589c0.869-0.817,0.902-2.032,0.563-2.853c-0.325-0.846-0.91-1.372-1.353-1.614
			C86.728,194.323,86.428,194.282,86.437,194.234z"/>
		<path id="svg_218" fill="#19437F" d="M91.17,111.823c0,0.011-0.118,0.022-0.349,0.033c-0.268,0.008-0.606,0.019-1.028,0.032
			c-0.956,0.014-2.287,0.034-3.992,0.06l0.125-0.125c0.081,7.089,0.136,21.212,0.136,37.442c-0.03,11.804-0.057,22.486-0.076,30.277
			c-0.035,3.837-0.063,6.959-0.083,9.175c-0.021,1.046-0.037,1.878-0.049,2.494c-0.017,0.57-0.034,0.87-0.052,0.87
			c-0.018,0-0.036-0.3-0.053-0.87c-0.012-0.616-0.028-1.448-0.049-2.494c-0.02-2.216-0.048-5.338-0.083-9.175
			c-0.02-7.791-0.047-18.473-0.077-30.277c0-16.23,0.055-30.354,0.136-37.442l0.001-0.126l0.123,0.002
			c1.705,0.025,3.037,0.045,3.992,0.059c0.422,0.013,0.76,0.023,1.028,0.032C91.053,111.8,91.17,111.811,91.17,111.823z"/>
	</g>
	<g id="svg_219">
		<g id="svg_220">
			<g id="svg_221">
				<g id="svg_222">
					<ellipse id="svg_223" fill="#19437F" cx="32.881" cy="159.764" rx="14.573" ry="0.261"/>
				</g>
			</g>
			<g id="svg_224">
				<g id="svg_225">
					<ellipse id="svg_226" fill="#19437F" cx="32.616" cy="163.515" rx="14.308" ry="0.26"/>
				</g>
			</g>
			<g id="svg_227">
				<g id="svg_228">
					<ellipse id="svg_229" fill="#19437F" cx="32.616" cy="167.266" rx="14.308" ry="0.26"/>
				</g>
			</g>
			<g id="svg_230">
				<g id="svg_231">
					<ellipse id="svg_232" fill="#19437F" cx="32.616" cy="171.016" rx="14.308" ry="0.261"/>
				</g>
			</g>
			<g id="svg_233">
				<g id="svg_234">
					<ellipse id="svg_235" fill="#19437F" cx="32.616" cy="174.767" rx="14.308" ry="0.261"/>
				</g>
			</g>
			<g id="svg_236">
				<g id="svg_237">
					<ellipse id="svg_238" fill="#19437F" cx="25.286" cy="178.518" rx="6.979" ry="0.26"/>
				</g>
			</g>
			<g id="svg_239">
				<g id="svg_240">
					<ellipse id="svg_241" fill="#19437F" cx="29.32" cy="155.663" rx="11.102" ry="0.26"/>
				</g>
			</g>
		</g>
		<g id="svg_242">
			<g id="svg_243">
				<path id="svg_244" fill="#19437F" d="M54.237,187.391c0,0-0.017-0.279-0.025-0.795c-0.006-0.538-0.014-1.295-0.025-2.27
					c-0.013-2.002-0.033-4.896-0.058-8.57c-0.027-7.374-0.067-17.877-0.114-30.502l0.222,0.222
					c-13.296,0.011-29.123,0.024-46.067,0.039c-0.062,0.055,0.489-0.49,0.256-0.253v0.011v0.022v0.045v0.09v0.18v0.359v0.718v1.431
					c0,0.952,0,1.9,0,2.844c0,1.888-0.001,3.76-0.001,5.612c-0.002,3.705-0.004,7.335-0.006,10.871
					c-0.008,7.071-0.016,13.768-0.023,19.946l-0.229-0.228c13.727,0.047,25.212,0.087,33.292,0.116
					c4.029,0.025,7.208,0.046,9.407,0.06c1.074,0.011,1.907,0.02,2.497,0.027c0.27,0.005,0.481,0.009,0.647,0.013
					C54.156,187.382,54.233,187.386,54.237,187.391c0.004,0.005-0.063,0.008-0.202,0.013c-0.16,0.003-0.363,0.008-0.623,0.013
					c-0.58,0.006-1.398,0.015-2.453,0.027c-2.187,0.014-5.348,0.034-9.355,0.06c-8.116,0.028-19.652,0.068-33.439,0.116H7.937
					v-0.229c-0.007-6.178-0.015-12.875-0.023-19.946c-0.002-3.536-0.004-7.166-0.006-10.871c0-1.853-0.001-3.724-0.001-5.612
					c0-0.944,0-1.892,0-2.844v-1.431v-0.718v-0.359v-0.18v-0.09v-0.045v-0.022v-0.011c-0.233,0.229,0.316-0.326,0.265-0.267
					c16.944,0.014,32.771,0.027,46.067,0.038h0.223l-0.001,0.222c-0.047,12.684-0.086,23.235-0.114,30.643
					c-0.024,3.653-0.044,6.53-0.058,8.52c-0.011,0.957-0.02,1.699-0.025,2.228C54.254,187.145,54.237,187.391,54.237,187.391z"/>
			</g>
		</g>
		<g id="svg_245">
			<g id="svg_246">
				<ellipse id="svg_247" fill="#19437F" cx="40.439" cy="196.624" rx="0.261" ry="8.38"/>
			</g>
		</g>
		<g id="svg_248">
			<g id="svg_249">
				<path id="svg_250" fill="#19437F" d="M42.348,201.185c0.141,0.071-0.927,1.773-1.048,4.14c-0.002,0.037-0.005,0.074-0.007,0.108
					l-0.046,0.749l-0.428-0.611c-1.395-1.994-1.782-3.941-1.653-3.961c0.146-0.048,0.737,1.761,2.08,3.664l-0.473,0.138
					c0.002-0.037,0.004-0.076,0.007-0.115C40.918,202.757,42.261,201.082,42.348,201.185z"/>
			</g>
		</g>
	</g>
	<g id="svg_251">
		<g id="svg_252">
			<g id="svg_253">
				<ellipse id="svg_254" fill="#263238" cx="326.87" cy="85.272" rx="0.26" ry="1.502"/>
			</g>
		</g>
		<g id="svg_255">
			<g id="svg_256">
				<ellipse id="svg_257" fill="#263238" cx="326.87" cy="91.279" rx="0.26" ry="1.502"/>
			</g>
		</g>
		<g id="svg_258">
			<g id="svg_259">
				<ellipse id="svg_260" fill="#263238" cx="326.87" cy="97.284" rx="0.26" ry="1.5"/>
			</g>
		</g>
		<g id="svg_261">
			<g id="svg_262">
				<ellipse id="svg_263" fill="#263238" cx="326.87" cy="103.279" rx="0.26" ry="1.499"/>
			</g>
		</g>
		<g id="svg_264">
			<g id="svg_265">
				<ellipse id="svg_266" fill="#263238" cx="326.87" cy="109.271" rx="0.26" ry="1.498"/>
			</g>
		</g>
		<g id="svg_267">
			<g id="svg_268">
				<ellipse id="svg_269" fill="#263238" cx="326.87" cy="115.264" rx="0.26" ry="1.498"/>
			</g>
		</g>
		<g id="svg_270">
			<g id="svg_271">
				<ellipse id="svg_272" fill="#263238" cx="326.87" cy="121.26" rx="0.26" ry="1.499"/>
			</g>
		</g>
		<g id="svg_273">
			<g id="svg_274">
				<ellipse id="svg_275" fill="#263238" cx="326.87" cy="127.256" rx="0.26" ry="1.5"/>
			</g>
		</g>
	</g>
	<g id="svg_276">
		<g id="svg_277">
			<g id="svg_278">
				<g id="svg_279">
					<g id="svg_280">
						<path id="svg_281" fill="#455A64" d="M360.616,76.473h-152.62c-2.186,0-3.958-1.772-3.958-3.958V12.194
							c0-2.186,1.772-3.958,3.958-3.958h152.622c2.186,0,3.957,1.772,3.957,3.958v60.321
							C364.575,74.701,362.801,76.473,360.616,76.473z"/>
					</g>
				</g>
			</g>
			<g id="svg_282">
				<g id="svg_283">
					<g id="svg_284">
						<path id="svg_285" fill="#FAFAFA" d="M251.225,33.583c-2.408-5.185-7.223-9.373-14.139-10.15
							c-0.187-0.021-0.371-0.04-0.561-0.056c-0.117-0.01-0.234-0.023-0.355-0.031c-0.35-0.023-0.703-0.038-1.063-0.043
							c-0.018,0-0.031-0.002-0.049-0.002h-0.002c-0.016,0-0.029-0.002-0.045-0.002v0.002l0,0l-0.078,14.662l-0.02,3.445
							l17.625,4.065l0.021,0.005l0,0c0.285-1.235,0.429-2.51,0.438-3.796C253.018,38.934,252.413,36.139,251.225,33.583z"/>
					</g>
				</g>
				<g id="svg_286">
					<path id="svg_287" fill="#E0E0E0" d="M232.233,43.315l0.038-3.243l0.078-14.662c-4.317-0.026-8.739,1.629-12.15,4.572
						c-4.018,3.467-6.627,8.721-6.009,15.114c0.061,0.628,0.155,1.268,0.279,1.917l-0.134,0.028
						c2.348,8.443,9.972,14.825,17.498,14.342c8.66-0.556,15.996-5.916,17.86-14.042L232.233,43.315z"/>
				</g>
			</g>
		</g>
		<g id="svg_304">
			<g id="svg_305">
				<g id="svg_306">
					<g id="svg_307">
						<path id="svg_308" fill="#E0E0E0" d="M318.024,25.447c-0.016-0.027,0.213-0.183,0.68-0.367
							c0.463-0.179,1.178-0.384,2.096-0.383c0.229,0,0.469,0.014,0.719,0.046c0.123,0.016,0.25,0.036,0.381,0.062l0.049,0.01
							l0.006,0.001c-0.133-0.213,0.184,0.291,0.15,0.24l-0.002,0.003l-0.002,0.012l-0.006,0.023l-0.02,0.094l-0.041,0.191
							c-0.111,0.523-0.23,1.072-0.354,1.646c-0.264,1.181-0.549,2.459-0.85,3.807l-0.045,0.202l-0.209-0.001
							c-0.424-0.001-0.871-0.003-1.324-0.005c-1.629-0.017-3.178-0.033-4.594-0.047l-0.24-0.002l0.006-0.238
							c0.025-1.013,0.275-1.939,0.648-2.684c0.381-0.745,0.869-1.303,1.322-1.692c0.453-0.393,0.867-0.625,1.158-0.76
							C317.846,25.469,318.014,25.426,318.024,25.447c0.035,0.066-0.613,0.328-1.434,1.128c-0.822,0.773-1.701,2.255-1.689,4.171
							l-0.234-0.24c1.414,0,2.961,0.001,4.59,0.001c0.453,0.003,0.9,0.006,1.324,0.009l-0.254,0.2
							c0.32-1.343,0.625-2.617,0.904-3.794c0.141-0.57,0.273-1.115,0.402-1.635l0.047-0.189l0.023-0.093l0.006-0.023l0.004-0.012
							v-0.003c-0.031-0.053,0.283,0.451,0.148,0.237l-0.006-0.001l-0.045-0.011c-0.117-0.029-0.236-0.053-0.352-0.073
							c-0.23-0.04-0.457-0.064-0.672-0.076C319.047,24.978,318.047,25.542,318.024,25.447z"/>
					</g>
				</g>
			</g>
			<g id="svg_309">
				<path id="svg_310" fill="#FAFAFA" d="M321.202,31.651l-1.061-0.012l-4.789-0.026c-0.008,1.411,0.533,2.855,1.494,3.969
					c1.133,1.313,2.85,2.165,4.938,1.963c0.205-0.02,0.414-0.05,0.627-0.091l0.01,0.044c2.758-0.767,4.842-3.258,4.686-5.716
					c-0.182-2.829-1.934-5.226-4.588-5.835L321.202,31.651z"/>
			</g>
		</g>
		<g id="svg_311">
			<g id="svg_312">
				<g id="svg_313">
					<path id="svg_314" fill="#FAFAFA" d="M318.024,46.972c-1.695,0.787-3.064,2.36-3.316,4.619
						c-0.008,0.061-0.014,0.121-0.02,0.183c-0.004,0.039-0.008,0.077-0.01,0.116c-0.008,0.114-0.014,0.23-0.016,0.348
						c0,0.005,0,0.01,0,0.016c0,0,0,0,0,0.001c0,0.005,0,0.01,0,0.015l0,0l0,0l4.791,0.025l1.125,0.006l1.328-5.757l0.002-0.007l0,0
						c-0.404-0.093-0.82-0.14-1.24-0.143C319.772,46.386,318.858,46.584,318.024,46.972z"/>
				</g>
			</g>
			<g id="svg_315">
				<g id="svg_316">
					<path id="svg_317" fill="#E0E0E0" d="M321.202,53.176c-0.021-0.029,0.082-0.602,0.275-1.599
						c0.223-1.073,0.512-2.468,0.857-4.147l0.037-0.177l0.188,0.037c1.727,0.334,3.609,1.767,4.373,3.982
						c0.365,1.078,0.607,2.337,0.246,3.591c-0.354,1.232-1.16,2.341-2.213,3.157c-0.75,0.583-1.604,1.002-2.477,1.251l-0.266,0.075
						l-0.057-0.27l-0.01-0.043l0.301,0.199c-1.033,0.195-2.096,0.154-3.049-0.148c-0.955-0.297-1.785-0.837-2.43-1.491
						c-1.295-1.315-1.846-3.019-1.814-4.456l0.004-0.191l0.184,0.004c1.734,0.043,3.174,0.079,4.279,0.107
						C320.633,53.092,321.163,53.154,321.202,53.176c0.039,0.025-0.547,0.064-1.568,0.088c-1.107,0.016-2.547,0.036-4.281,0.061
						l0.189-0.187c0.006,1.341,0.555,2.924,1.77,4.124c1.189,1.219,3.121,1.871,5.051,1.463l0.246-0.052l0.055,0.252l0.01,0.043
						l-0.322-0.194c0.809-0.234,1.602-0.625,2.297-1.166c0.979-0.756,1.721-1.781,2.041-2.887c0.33-1.1,0.123-2.271-0.209-3.29
						c-0.691-2.073-2.398-3.418-4.002-3.778l0.225-0.14c-0.439,1.793-0.811,3.227-1.068,4.2
						C321.374,52.688,321.225,53.205,321.202,53.176z"/>
				</g>
			</g>
		</g>
		<g id="svg_318">
			<g id="svg_319">
				<g id="svg_320">
					<ellipse id="svg_321" fill="#263238" cx="343.065" cy="50.048" rx="10.006" ry="0.26"/>
				</g>
			</g>
			<g id="svg_322">
				<g id="svg_323">
					<ellipse id="svg_324" fill="#263238" cx="338.063" cy="52.721" rx="5.004" ry="0.261"/>
				</g>
			</g>
		</g>
		<g id="svg_325">
			<g id="svg_326">
				<g id="svg_327">
					<ellipse id="svg_328" fill="#263238" cx="343.065" cy="28.538" rx="10.006" ry="0.261"/>
				</g>
			</g>
			<g id="svg_329">
				<g id="svg_330">
					<ellipse id="svg_331" fill="#263238" cx="338.063" cy="31.211" rx="5.004" ry="0.26"/>
				</g>
			</g>
		</g>
		<g id="svg_332">
			<g id="svg_333">
				<ellipse id="svg_334" fill="#263238" cx="305.405" cy="40.232" rx="0.26" ry="26.889"/>
			</g>
		</g>
	</g>
	<g id="svg_336">
		<rect id="svg_337" x="296.918" y="133.976" fill="#F14D4E" width="6.195" height="55.94"/>
	</g>
	<g id="svg_338">
		<rect id="svg_339" x="308.881" y="152.976" fill="#F14D4E" width="6.195" height="36.941"/>
	</g>
	<g id="svg_340">
		<rect id="svg_341" x="320.842" y="140.929" fill="#F14D4E" width="6.195" height="49.272"/>
	</g>
	<g id="svg_342">
		<rect id="svg_343" x="332.805" y="136.136" fill="#F14D4E" width="6.195" height="53.78"/>
	</g>
	<g id="svg_344">
		<rect id="svg_345" x="344.766" y="154.113" fill="#F14D4E" width="6.195" height="35.804"/>
	</g>
	<g id="svg_346">
		<rect id="svg_347" x="356.729" y="161.134" fill="#F14D4E" width="6.195" height="28.782"/>
	</g>
	<g id="svg_348">
		<rect id="svg_349" x="368.69" y="139.718" fill="#F14D4E" width="6.195" height="50.199"/>
	</g>
	<g id="svg_350">
		<rect id="svg_351" x="380.651" y="148.768" fill="#F14D4E" width="6.195" height="41.148"/>
	</g>
	<g id="svg_352">
		<rect id="svg_353" x="392.614" y="141.536" fill="#F14D4E" width="6.195" height="48.38"/>
	</g>
	<g id="svg_354">
		<rect id="svg_355" x="404.575" y="156.956" fill="#F14D4E" width="6.197" height="32.961"/>
	</g>
	<g id="svg_356">
		<rect id="svg_357" x="416.538" y="150.684" fill="#F14D4E" width="6.195" height="39.233"/>
	</g>
	<g id="svg_358">
		<g id="svg_359">
			<path id="svg_360" fill="#263238" d="M418.897,146.659c-0.004,0.009-0.131-0.005-0.375-0.042c-0.27-0.043-0.629-0.1-1.082-0.173
				c-0.475-0.092-1.064-0.167-1.768-0.23c-0.352-0.037-0.729-0.077-1.131-0.12c-0.406-0.018-0.838-0.037-1.293-0.057
				c-1.824-0.086-4.07-0.026-6.637,0.36c-2.564,0.377-5.453,1.081-8.479,2.307c-3.018,1.225-6.189,2.955-9.143,5.403
				c-2.996,2.402-5.611,5.595-8.184,9.074c-2.6,3.444-5.254,7.234-8.936,10.285c-1.822,1.526-3.896,2.847-6.201,3.748
				c-2.303,0.887-4.873,1.271-7.398,0.911c-2.537-0.308-4.891-1.355-6.977-2.647c-2.072-1.337-3.914-2.936-5.535-4.671
				c-3.271-3.464-5.65-7.396-8.154-10.913c-2.482-3.533-5.094-6.753-8.148-9.069c-1.512-1.176-3.156-2.031-4.785-2.722
				c-1.646-0.661-3.309-1.069-4.914-1.322c-3.223-0.479-6.209-0.199-8.723,0.377c-2.525,0.584-4.578,1.509-6.174,2.391
				c-1.563,0.943-2.693,1.808-3.41,2.448c-0.342,0.31-0.609,0.553-0.813,0.736c-0.186,0.164-0.283,0.246-0.291,0.239
				c-0.006-0.006,0.08-0.1,0.252-0.277c0.195-0.193,0.453-0.45,0.779-0.777c0.699-0.668,1.818-1.565,3.379-2.545
				c1.594-0.918,3.658-1.88,6.209-2.5c2.539-0.61,5.564-0.921,8.844-0.458c1.633,0.246,3.326,0.649,5.01,1.313
				c1.662,0.692,3.354,1.562,4.896,2.75c3.123,2.343,5.777,5.598,8.279,9.136c2.525,3.527,4.904,7.433,8.135,10.84
				c1.602,1.709,3.416,3.278,5.441,4.583c2.039,1.26,4.32,2.273,6.768,2.569c2.438,0.347,4.906-0.02,7.146-0.878
				c2.236-0.873,4.268-2.16,6.061-3.657c3.619-2.988,6.262-6.736,8.877-10.181c1.305-1.731,2.604-3.411,3.969-4.958
				c0.689-0.768,1.369-1.525,2.109-2.203c0.365-0.343,0.729-0.684,1.088-1.021c0.369-0.326,0.756-0.627,1.129-0.938
				c3-2.465,6.223-4.195,9.277-5.411c3.063-1.216,5.984-1.9,8.574-2.254c2.59-0.362,4.854-0.392,6.686-0.274
				c0.459,0.028,0.893,0.056,1.299,0.081c0.404,0.051,0.781,0.099,1.135,0.144c0.701,0.08,1.295,0.171,1.766,0.28
				c0.453,0.094,0.809,0.168,1.076,0.224C418.776,146.619,418.899,146.65,418.897,146.659z"/>
		</g>
	</g>
	<g id="svg_361">
		<g id="svg_362">
			<path id="svg_363" fill="#263238" d="M290.099,193.813c-0.146,0-0.261-15.952-0.261-35.625c0-19.68,0.115-35.628,0.261-35.628
				c0.144,0,0.26,15.948,0.26,35.628C290.358,177.861,290.243,193.813,290.099,193.813z"/>
		</g>
	</g>
	<g id="svg_364">
		<g id="svg_365">
			<path id="svg_366" fill="#263238" d="M425.262,193.813c0,0.144-29.389,0.26-65.635,0.26c-36.26,0-65.643-0.117-65.643-0.26
				s29.383-0.26,65.643-0.26C395.874,193.553,425.262,193.669,425.262,193.813z"/>
		</g>
	</g>
	<g id="svg_367">
		<g id="svg_368">
			<ellipse id="svg_369" fill="#263238" cx="301.159" cy="198.216" rx="4.598" ry="0.261"/>
		</g>
	</g>
	<g id="svg_370">
		<g id="svg_371">
			<ellipse id="svg_372" fill="#263238" cx="315.514" cy="198.44" rx="5.494" ry="0.26"/>
		</g>
	</g>
	<g id="svg_373">
		<g id="svg_374">
			<ellipse id="svg_375" fill="#263238" cx="328.522" cy="198.44" rx="5.494" ry="0.26"/>
		</g>
	</g>
	<g id="svg_376">
		<g id="svg_377">
			<ellipse id="svg_378" fill="#263238" cx="341.532" cy="198.44" rx="5.496" ry="0.26"/>
		</g>
	</g>
	<g id="svg_379">
		<g id="svg_380">
			<ellipse id="svg_381" fill="#263238" cx="354.542" cy="198.44" rx="5.494" ry="0.26"/>
		</g>
	</g>
	<g id="svg_382">
		<g id="svg_383">
			<ellipse id="svg_384" fill="#263238" cx="367.549" cy="198.44" rx="5.496" ry="0.26"/>
		</g>
	</g>
	<g id="svg_385">
		<g id="svg_386">
			<ellipse id="svg_387" fill="#263238" cx="380.559" cy="198.44" rx="5.496" ry="0.26"/>
		</g>
	</g>
	<g id="svg_388">
		<g id="svg_389">
			<ellipse id="svg_390" fill="#263238" cx="393.569" cy="198.44" rx="5.494" ry="0.26"/>
		</g>
	</g>
	<g id="svg_391">
		<g id="svg_392">
			<ellipse id="svg_393" fill="#263238" cx="406.579" cy="198.44" rx="5.496" ry="0.26"/>
		</g>
	</g>
	<g id="svg_394">
		<g id="svg_395">
			<ellipse id="svg_396" fill="#263238" cx="419.586" cy="198.44" rx="5.496" ry="0.26"/>
		</g>
	</g>
	<g id="svg_397">
		<g id="svg_398">
			<path id="svg_399" fill="#263238" d="M339.264,160.548c-0.012-0.069,0.537,0.017,0.746,0.725c0.086,0.327,0.086,0.8-0.246,1.198
				c-0.332,0.412-0.994,0.5-1.49,0.265c-0.506-0.215-0.877-0.769-0.789-1.291c0.076-0.514,0.43-0.827,0.732-0.979
				c0.668-0.313,1.096,0.04,1.035,0.077c-0.023,0.076-0.406-0.071-0.852,0.242c-0.211,0.148-0.422,0.41-0.439,0.71
				c-0.031,0.295,0.184,0.609,0.525,0.766c0.346,0.153,0.723,0.105,0.922-0.114c0.213-0.213,0.27-0.545,0.24-0.801
				C339.586,160.805,339.223,160.617,339.264,160.548z"/>
		</g>
	</g>
	<g id="svg_400">
		<g id="svg_401">
			<path id="svg_402" fill="#263238" d="M399.149,147.043c0-0.031,0.123-0.075,0.352-0.035c0.223,0.04,0.551,0.186,0.814,0.521
				c0.262,0.316,0.461,0.886,0.219,1.456c-0.234,0.545-0.82,0.979-1.52,0.977c-0.729-0.003-1.262-0.582-1.414-1.119
				c-0.182-0.553-0.004-1.136,0.293-1.437c0.613-0.619,1.195-0.521,1.18-0.472c0.029,0.082-0.488,0.158-0.893,0.703
				c-0.193,0.267-0.271,0.654-0.125,1.055c0.143,0.392,0.512,0.753,0.967,0.75c0.461,0.007,0.902-0.297,1.074-0.654
				c0.18-0.359,0.09-0.768-0.084-1.047C399.653,147.152,399.129,147.124,399.149,147.043z"/>
		</g>
	</g>
	<g id="svg_403">
		<g id="svg_404">
			<g id="svg_405">
				<ellipse id="svg_406" fill="#263238" cx="400.12" cy="120.176" rx="0.262" ry="0.75"/>
			</g>
		</g>
		<g id="svg_407">
			<g id="svg_408">
				<ellipse id="svg_409" fill="#263238" cx="400.12" cy="125.807" rx="0.262" ry="1.627"/>
			</g>
		</g>
		<g id="svg_410">
			<g id="svg_411">
				<ellipse id="svg_412" fill="#263238" cx="400.12" cy="132.316" rx="0.262" ry="1.627"/>
			</g>
		</g>
		<g id="svg_413">
			<g id="svg_414">
				<ellipse id="svg_415" fill="#263238" cx="400.12" cy="138.825" rx="0.262" ry="1.627"/>
			</g>
		</g>
		<g id="svg_416">
			<g id="svg_417">
				<ellipse id="svg_418" fill="#263238" cx="400.12" cy="144.457" rx="0.262" ry="0.75"/>
			</g>
		</g>
	</g>
	<g id="svg_419">
		<g id="svg_420">
			<path id="svg_421" fill="#263238" d="M444.202,110.602c0,0.144-10.164,0.26-22.697,0.26c-12.541,0-22.701-0.116-22.701-0.26
				s10.16-0.26,22.701-0.26C434.038,110.342,444.202,110.458,444.202,110.602z"/>
		</g>
	</g>
	<g id="svg_422">
		<g id="svg_423">
			<ellipse id="svg_424" fill="#263238" cx="414.092" cy="105.463" rx="14.605" ry="0.26"/>
		</g>
	</g>
	<g id="svg_425">
		<ellipse id="svg_426" fill="#263238" cx="131.127" cy="75.723" rx="0.26" ry="0.75"/>
		<ellipse id="svg_427" fill="#263238" cx="131.127" cy="70.629" rx="0.26" ry="1.448"/>
		<ellipse id="svg_428" fill="#263238" cx="131.127" cy="64.835" rx="0.26" ry="1.447"/>
		<ellipse id="svg_429" fill="#263238" cx="131.127" cy="59.05" rx="0.26" ry="1.447"/>
		<ellipse id="svg_430" fill="#263238" cx="131.127" cy="53.264" rx="0.26" ry="1.445"/>
		<ellipse id="svg_431" fill="#263238" cx="131.127" cy="47.479" rx="0.26" ry="1.447"/>
		<ellipse id="svg_432" fill="#263238" cx="131.127" cy="42.381" rx="0.26" ry="0.75"/>
		<ellipse id="svg_433" fill="#263238" cx="131.877" cy="40.223" rx="0.75" ry="0.26"/>
		<ellipse id="svg_434" fill="#263238" cx="137.248" cy="40.223" rx="1.54" ry="0.26"/>
		<ellipse id="svg_435" fill="#263238" cx="143.409" cy="40.223" rx="1.54" ry="0.26"/>
		<ellipse id="svg_436" fill="#263238" cx="149.569" cy="40.223" rx="1.54" ry="0.26"/>
		<ellipse id="svg_437" fill="#263238" cx="155.721" cy="40.223" rx="1.537" ry="0.26"/>
		<ellipse id="svg_438" fill="#263238" cx="161.872" cy="40.223" rx="1.539" ry="0.26"/>
		<ellipse id="svg_439" fill="#263238" cx="168.024" cy="40.223" rx="1.538" ry="0.26"/>
		<ellipse id="svg_440" fill="#263238" cx="174.176" cy="40.223" rx="1.539" ry="0.26"/>
		<ellipse id="svg_441" fill="#263238" cx="180.331" cy="40.223" rx="1.538" ry="0.26"/>
		<ellipse id="svg_442" fill="#263238" cx="186.485" cy="40.223" rx="1.538" ry="0.26"/>
		<ellipse id="svg_443" fill="#263238" cx="192.639" cy="40.223" rx="1.538" ry="0.26"/>
		<ellipse id="svg_444" fill="#263238" cx="198.04" cy="40.223" rx="0.75" ry="0.26"/>
	</g>
	<path id="svg_447" fill="#263238" d="M272.711,96.161h-38.485c-2.144,0-3.88,1.737-3.88,3.879v22.575
		c0,2.142,1.736,3.879,3.88,3.879h6.16v9.252l8.294-9.252h24.031c2.144,0,3.879-1.737,3.879-3.879V100.04
		C276.59,97.897,274.854,96.161,272.711,96.161z"/>
	<g id="svg_448">
		<circle id="svg_449" fill="#FFD143" cx="247.256" cy="111.823" r="1.606"/>
	</g>
	<g id="svg_450">
		<circle id="svg_451" fill="#FFD143" cx="253.564" cy="111.823" r="1.606"/>
	</g>
	<g id="svg_452">
		<circle id="svg_453" fill="#FFD143" cx="259.681" cy="111.823" r="1.606"/>
	</g>
	<g id="svg_455">
		<g id="svg_456">
			<path id="svg_457" fill="#263238" d="M187.608,124.262c-1.889-0.468-1.584-5.669-1.78-7.26c-0.119-0.969-0.229-2,0.189-2.882
				c0.542-1.142,1.842-1.734,3.092-1.922c1.25-0.188,2.531-0.066,3.782-0.247c2.517-0.363,4.764-1.923,7.297-2.148
				c2.066-0.184,4.199,0.594,5.661,2.066c0.874,0.879,1.537,2.003,2.61,2.623c0.95,0.548,2.09,0.623,3.141,0.937
				c2.606,0.778,4.644,3.194,4.972,5.894c0.194,1.601-0.164,3.209-0.35,4.811c-0.186,1.602-0.172,3.324,0.672,4.698
				c0.876,1.426,2.523,2.265,3.333,3.73c0.718,1.298,0.633,2.999-0.209,4.219c-0.843,1.22-2.403,1.902-3.871,1.691
				c-0.47-0.067-1.008-0.201-1.374,0.101c-0.316,0.261-0.345,0.723-0.431,1.123c-0.329,1.527-1.985,2.635-3.521,2.356
				c-1.536-0.279-2.697-1.899-2.468-3.444"/>
		</g>
		<g id="svg_458">
			<g id="svg_459">
				<g id="svg_460">
					<g id="svg_461">
						<g id="svg_462">
							<path id="svg_463" fill="#FFBE9D" d="M209.512,157.566l-16.559-1.322c-0.104-1.933,0.035-9.413,0.035-9.413
								s-6.89-1.071-6.975-7.96c-0.085-6.888,1.109-22.706,1.109-22.706l0,0c7.974-3.427,17.178-2.27,24.056,3.024l1.021,0.786
								L209.512,157.566z"/>
						</g>
					</g>
					<g id="svg_464">
						<g id="svg_465">
							<g id="svg_466">
								<circle id="svg_467" fill="#263238" cx="188.036" cy="126.621" r="1"/>
							</g>
						</g>
						<g id="svg_468">
							<g id="svg_469">
								<g id="svg_470">
									<path id="svg_471" fill="#263238" d="M187.038,126.432c0.108,0.119,0.784-0.401,1.732-0.406
										c0.949-0.019,1.638,0.485,1.743,0.364c0.051-0.054-0.057-0.27-0.357-0.498c-0.295-0.227-0.801-0.446-1.393-0.438
										c-0.591,0.007-1.092,0.238-1.381,0.472C187.087,126.161,186.986,126.378,187.038,126.432z"/>
								</g>
							</g>
						</g>
					</g>
					<g id="svg_472">
						<g id="svg_473">
							<g id="svg_474">
								<circle id="svg_475" fill="#263238" cx="198.33" cy="127.622" r="1"/>
							</g>
						</g>
						<g id="svg_476">
							<g id="svg_477">
								<g id="svg_478">
									<path id="svg_479" fill="#263238" d="M197.343,127.267c0.108,0.119,0.784-0.401,1.733-0.406
										c0.949-0.019,1.637,0.485,1.742,0.364c0.051-0.054-0.056-0.269-0.357-0.498c-0.295-0.227-0.801-0.446-1.393-0.438
										c-0.591,0.007-1.092,0.238-1.381,0.472C197.393,126.997,197.291,127.214,197.343,127.267z"/>
								</g>
							</g>
						</g>
					</g>
					<g id="svg_480">
						<g id="svg_481">
							<g id="svg_482">
								<path id="svg_483" fill="#263238" d="M193.539,135.094c0.006-0.074-0.581-0.193-1.534-0.325
									c-0.249-0.027-0.443-0.083-0.461-0.217c-0.045-0.15,0.051-0.415,0.177-0.71c0.245-0.627,0.492-1.263,0.75-1.928
									c1.037-2.747,1.764-5.015,1.624-5.068c-0.139-0.053-1.092,2.131-2.129,4.877c-0.245,0.671-0.479,1.311-0.71,1.943
									c-0.091,0.287-0.264,0.622-0.136,1.032c0.068,0.205,0.264,0.353,0.428,0.396c0.164,0.05,0.304,0.05,0.423,0.055
									C192.934,135.184,193.532,135.168,193.539,135.094z"/>
							</g>
						</g>
					</g>
					<g id="svg_484">
						<g id="svg_485">
							<path id="svg_486" fill="#FAFAFA" d="M196.621,136.142c0.989-0.588-2.722,1.446-4.653,1.352c0,0,1.108,1.771,3.094,1.044
								C197.124,137.783,196.621,136.142,196.621,136.142z"/>
						</g>
					</g>
					<g id="svg_487">
						<g id="svg_488">
							<path id="svg_489" fill="#EB996E" d="M192.977,146.731c0,0,4.354,0.354,8.98-2.552c0,0-2.123,4.957-8.996,4.336
								L192.977,146.731z"/>
						</g>
					</g>
				</g>
			</g>
			<g id="svg_490">
				<g id="svg_491">
					<g id="svg_492">
						<path id="svg_493" fill="#FFBE9D" d="M211.144,127.058c0.136-0.083,4.886-1.623,5.498,4.211
							c0.612,5.834-5.482,4.522-5.51,4.356C211.103,135.458,211.144,127.058,211.144,127.058z"/>
					</g>
				</g>
				<g id="svg_494">
					<g id="svg_495">
						<g id="svg_496">
							<path id="svg_497" fill="#EB996E" d="M212.704,133.39c0.024-0.021,0.109,0.061,0.289,0.121
								c0.176,0.059,0.469,0.082,0.761-0.063c0.593-0.291,1.009-1.324,0.927-2.378c-0.041-0.533-0.205-1.027-0.437-1.426
								c-0.223-0.408-0.53-0.677-0.846-0.7c-0.316-0.039-0.517,0.17-0.571,0.341c-0.061,0.171-0.012,0.284-0.042,0.297
								c-0.015,0.017-0.136-0.084-0.114-0.33c0.012-0.118,0.066-0.263,0.191-0.39c0.128-0.128,0.328-0.208,0.546-0.208
								c0.453-0.016,0.901,0.355,1.156,0.793c0.28,0.437,0.477,0.991,0.523,1.589c0.086,1.18-0.4,2.343-1.218,2.675
								c-0.399,0.15-0.755,0.063-0.946-0.057C212.729,133.53,212.685,133.403,212.704,133.39z"/>
						</g>
					</g>
				</g>
			</g>
		</g>
		<g id="svg_498">
			<path id="svg_499" fill="#263238" d="M187.158,115.821c1.319,2.439,4.218,3.675,6.988,3.79c2.771,0.115,5.483-0.699,8.155-1.439
				c1.448-0.401,3.213-0.708,4.274,0.356c0.619,0.62,0.802,1.542,0.912,2.411c0.245,1.93,0.271,3.888,0.081,5.824
				c-0.077,0.775-0.187,1.569,0.008,2.324c0.195,0.754,0.787,1.469,1.563,1.535c1.215,0.102,1.957-1.272,2.368-2.42
				c0.57-1.591,1.145-3.199,1.347-4.876c0.202-1.678,0.002-3.457-0.885-4.896c-1.002-1.624-2.744-2.627-4.464-3.451
				c-3.456-1.654-7.196-2.867-11.028-2.893c-3.831-0.025-7.772,1.24-10.463,3.967"/>
		</g>
	</g>
	<g id="svg_501">
		<g id="svg_502">
			<g id="svg_503">
				<g id="svg_504">
					<g id="svg_505">
						<g id="svg_506">
							<path id="svg_507" fill="#E8505B" d="M185.147,418.559l-0.053-9.195l17.223-0.209l0.22,13.452l-1.067,0.08
								c-4.75,0.322-24.172,1.301-27.36,0.375C170.554,422.031,185.147,418.559,185.147,418.559z"/>
						</g>
					</g>
				</g>
				<g id="svg_508">
					<g id="svg_509">
						<g id="svg_510">
							<path id="svg_511" fill="#E8505B" d="M196.291,422.546c0.228-1.441,1.012-2.789,2.153-3.698
								c1.141-0.91,2.554-1.399,4.011-1.302l0.062,4.814L196.291,422.546z"/>
						</g>
					</g>
				</g>
			</g>
			<g id="svg_512">
				<g id="svg_513">
					<g id="svg_514">
						<path id="svg_515" fill="#E8505B" d="M178.02,420.509c0,0-5.111,1.543-4.461,2.379c0.65,0.838,20.314,0.588,28.979-0.281
							l-0.033-0.385l-22.934,0.486C179.571,422.708,179.023,420.541,178.02,420.509z"/>
					</g>
				</g>
			</g>
			<g id="svg_516">
				<g id="svg_517">
					<g id="svg_518">
						<g id="svg_519">
							<path id="svg_520" fill="#263238" d="M202.775,422.208c0,0.006-0.102,0.018-0.295,0.035c-0.255,0.018-0.535,0.039-0.85,0.063
								c-0.85,0.049-1.895,0.105-3.128,0.176c-2.643,0.129-6.296,0.258-10.333,0.313c-4.038,0.053-7.694,0.023-10.339-0.035
								c-1.235-0.035-2.281-0.064-3.132-0.09c-0.316-0.014-0.596-0.027-0.851-0.039c-0.195-0.012-0.297-0.021-0.296-0.027
								c0-0.008,0.103-0.012,0.297-0.016c0.256,0,0.536,0,0.852,0c0.851,0.008,1.897,0.016,3.132,0.025
								c2.645,0.02,6.299,0.025,10.334-0.027c4.035-0.055,7.687-0.16,10.33-0.252c1.234-0.043,2.28-0.078,3.13-0.107
								c0.316-0.01,0.596-0.018,0.852-0.023C202.672,422.199,202.775,422.201,202.775,422.208z"/>
						</g>
					</g>
				</g>
			</g>
			<g id="svg_521">
				<g id="svg_522">
					<g id="svg_523">
						<g id="svg_524">
							<path id="svg_525" fill="#263238" d="M179.579,422.976c-0.063,0.01-0.122-0.736-0.604-1.484
								c-0.469-0.759-1.118-1.133-1.083-1.187c0.012-0.052,0.754,0.264,1.259,1.073
								C179.666,422.183,179.631,422.988,179.579,422.976z"/>
						</g>
					</g>
				</g>
			</g>
			<g id="svg_526">
				<g id="svg_527">
					<g id="svg_528">
						<g id="svg_529">
							
								<ellipse id="svg_530" transform="matrix(0.8378 -0.546 0.546 0.8378 -199.2265 168.6057)" fill="#263238" cx="184.154" cy="419.606" rx="0.104" ry="0.849"/>
						</g>
					</g>
				</g>
			</g>
			<g id="svg_531">
				<g id="svg_532">
					<g id="svg_533">
						<g id="svg_534">
							
								<ellipse id="svg_535" transform="matrix(0.6585 -0.7526 0.7526 0.6585 -252.075 282.6794)" fill="#263238" cx="185.442" cy="419.097" rx="0.104" ry="0.722"/>
						</g>
					</g>
				</g>
			</g>
			<g id="svg_536">
				<g id="svg_537">
					<g id="svg_538">
						<g id="svg_539">
							<ellipse id="svg_540" fill="#263238" cx="185.979" cy="417.953" rx="0.9" ry="0.105"/>
						</g>
					</g>
				</g>
			</g>
			<g id="svg_541">
				<g id="svg_542">
					<g id="svg_543">
						<g id="svg_544">
							<path id="svg_545" fill="#263238" d="M187.162,416.791c0.02,0.053-0.416,0.256-0.999,0.306
								c-0.583,0.053-1.048-0.07-1.038-0.125c0.009-0.06,0.465-0.031,1.019-0.083C186.699,416.841,187.143,416.734,187.162,416.791z
								"/>
						</g>
					</g>
				</g>
			</g>
			<g id="svg_546">
				<g id="svg_547">
					<g id="svg_548">
						<g id="svg_549">
							<path id="svg_550" fill="#263238" d="M184.024,418.839c0.001,0.022-0.423,0.08-1.107,0.007
								c-0.341-0.036-0.746-0.112-1.182-0.245c-0.217-0.074-0.443-0.128-0.678-0.27c-0.11-0.072-0.233-0.172-0.278-0.34
								c-0.048-0.166,0.039-0.354,0.162-0.445c1.051-0.562,2.118,0.021,2.517,0.563c0.22,0.275,0.322,0.547,0.371,0.734
								c0.047,0.188,0.045,0.297,0.032,0.298c-0.039,0.017-0.08-0.435-0.516-0.938c-0.215-0.246-0.539-0.484-0.953-0.603
								c-0.392-0.11-0.949-0.136-1.318,0.106c-0.174,0.133-0.103,0.338,0.094,0.453c0.184,0.114,0.42,0.184,0.625,0.258
								c0.42,0.139,0.812,0.228,1.143,0.281C183.602,418.809,184.024,418.805,184.024,418.839z"/>
						</g>
					</g>
				</g>
			</g>
			<g id="svg_551">
				<g id="svg_552">
					<g id="svg_553">
						<g id="svg_554">
							<path id="svg_555" fill="#263238" d="M183.738,418.897c-0.016,0.013-0.183-0.269-0.137-0.769
								c0.023-0.244,0.11-0.535,0.292-0.812c0.192-0.248,0.439-0.59,0.915-0.575c0.257,0.028,0.386,0.319,0.348,0.506
								c-0.018,0.194-0.103,0.361-0.182,0.498c-0.161,0.277-0.344,0.504-0.514,0.676c-0.343,0.344-0.615,0.477-0.628,0.455
								c-0.02-0.025,0.218-0.201,0.519-0.556c0.149-0.177,0.312-0.401,0.455-0.67c0.149-0.235,0.248-0.657-0.031-0.704
								c-0.277-0.023-0.557,0.256-0.723,0.479c-0.171,0.242-0.264,0.5-0.304,0.724C183.668,418.603,183.775,418.889,183.738,418.897
								z"/>
						</g>
					</g>
				</g>
			</g>
			<g id="svg_556">
				<g id="svg_557">
					<g id="svg_558">
						<g id="svg_559">
							<path id="svg_560" fill="#263238" d="M202.364,417.5c-0.003,0.039-0.494-0.041-1.271,0.062
								c-0.77,0.097-1.838,0.426-2.762,1.181c-0.922,0.756-1.458,1.737-1.704,2.473c-0.253,0.742-0.272,1.238-0.312,1.234
								c-0.013,0-0.021-0.125-0.005-0.35c0.015-0.223,0.064-0.545,0.176-0.93c0.216-0.769,0.75-1.803,1.712-2.592
								c0.962-0.785,2.083-1.104,2.877-1.164c0.4-0.033,0.726-0.018,0.948,0.012C202.245,417.457,202.366,417.487,202.364,417.5z"/>
						</g>
					</g>
				</g>
			</g>
			<g id="svg_561">
				<g id="svg_562">
					<g id="svg_563">
						<g id="svg_564">
							<ellipse id="svg_565" fill="#263238" cx="200.584" cy="413.883" rx="0.105" ry="3.539"/>
						</g>
					</g>
				</g>
			</g>
			<g id="svg_566">
				<g id="svg_567">
					<g id="svg_568">
						<g id="svg_569">
							<path id="svg_570" fill="#263238" d="M194.103,420.895c0.008,0.056-1.112,0.253-2.511,0.282
								c-1.399,0.033-2.527-0.117-2.521-0.17c0.005-0.062,1.13-0.006,2.517-0.039C192.973,420.939,194.095,420.835,194.103,420.895z
								"/>
						</g>
					</g>
				</g>
			</g>
			<g id="svg_571">
				<g id="svg_572">
					<g id="svg_573">
						<g id="svg_574">
							<path id="svg_575" fill="#263238" d="M197.478,420.847c0.042,0.042-0.089,0.24-0.201,0.498
								c-0.115,0.26-0.171,0.49-0.231,0.486c-0.056,0-0.092-0.271,0.04-0.568C197.216,420.962,197.44,420.806,197.478,420.847z"/>
						</g>
					</g>
				</g>
			</g>
			<g id="svg_576">
				<g id="svg_577">
					<g id="svg_578">
						<g id="svg_579">
							
								<ellipse id="svg_580" transform="matrix(-0.7199 -0.6941 0.6941 -0.7199 49.9927 859.323)" fill="#263238" cx="198.394" cy="419.574" rx="0.104" ry="0.459"/>
						</g>
					</g>
				</g>
			</g>
			<g id="svg_581">
				<g id="svg_582">
					<g id="svg_583">
						<g id="svg_584">
							<path id="svg_585" fill="#263238" d="M200.541,418.501c-0.011,0.059-0.24,0.06-0.492,0.151
								c-0.254,0.087-0.433,0.229-0.478,0.19c-0.047-0.031,0.095-0.278,0.409-0.389
								C200.292,418.345,200.558,418.447,200.541,418.501z"/>
						</g>
					</g>
				</g>
			</g>
			<g id="svg_586">
				<g id="svg_587">
					<g id="svg_588">
						<g id="svg_589">
							
								<ellipse id="svg_590" transform="matrix(-0.3742 -0.9273 0.9273 -0.3742 -110.8542 761.7185)" fill="#263238" cx="201.578" cy="418.262" rx="0.104" ry="0.278"/>
						</g>
					</g>
				</g>
			</g>
		</g>
	</g>
	<g id="svg_591">
		<g id="svg_592">
			<g id="svg_593">
				<g id="svg_594">
					<g id="svg_595">
						<g id="svg_596">
							<path id="svg_597" fill="#E8505B" d="M273.165,413.806l-2.804-8.758l-16.438,5.147l3.968,12.854l1.039-0.254
								c4.614-1.168,23.381-6.268,26.126-8.135C288.116,412.578,273.165,413.806,273.165,413.806z"/>
						</g>
					</g>
				</g>
				<g id="svg_598">
					<g id="svg_599">
						<g id="svg_600">
							<path id="svg_601" fill="#E8505B" d="M263.81,421.056c-0.664-1.301-1.827-2.338-3.194-2.848
								c-1.367-0.512-2.863-0.539-4.217,0.008l1.436,4.596L263.81,421.056z"/>
						</g>
					</g>
				</g>
			</g>
			<g id="svg_602">
				<g id="svg_603">
					<g id="svg_604">
						<path id="svg_605" fill="#E8505B" d="M280.545,413.449c0,0,5.338-0.121,4.979,0.877c-0.358,0.996-19.129,6.863-27.635,8.725
							l-0.089-0.375l21.953-6.654C279.754,416.021,279.602,413.789,280.545,413.449z"/>
					</g>
				</g>
			</g>
			<g id="svg_606">
				<g id="svg_607">
					<g id="svg_608">
						<g id="svg_609">
							<path id="svg_610" fill="#263238" d="M257.54,422.746c0.002,0.008,0.104-0.012,0.293-0.057
								c0.248-0.063,0.521-0.131,0.826-0.205c0.823-0.221,1.836-0.488,3.028-0.807c2.554-0.697,6.065-1.709,9.92-2.908
								c3.854-1.203,7.321-2.366,9.817-3.242c1.162-0.417,2.148-0.771,2.949-1.059c0.297-0.111,0.559-0.211,0.797-0.301
								c0.183-0.071,0.275-0.111,0.273-0.119c-0.003-0.006-0.102,0.021-0.287,0.078c-0.242,0.08-0.51,0.168-0.811,0.266
								c-0.807,0.271-1.799,0.604-2.971,0.995c-2.508,0.84-5.979,1.979-9.832,3.183c-3.853,1.199-7.356,2.232-9.897,2.967
								c-1.187,0.342-2.19,0.633-3.009,0.869c-0.305,0.09-0.572,0.17-0.817,0.242C257.635,422.707,257.538,422.74,257.54,422.746z"
								/>
						</g>
					</g>
				</g>
			</g>
			<g id="svg_611">
				<g id="svg_612">
					<g id="svg_613">
						<g id="svg_614">
							<path id="svg_615" fill="#263238" d="M279.831,416.277c0.063-0.012-0.113-0.74,0.111-1.602
								c0.211-0.864,0.712-1.422,0.661-1.463c-0.026-0.045-0.636,0.484-0.862,1.412C279.5,415.55,279.784,416.305,279.831,416.277z"
								/>
						</g>
					</g>
				</g>
			</g>
			<g id="svg_616">
				<g id="svg_617">
					<g id="svg_618">
						<g id="svg_619">
							
								<ellipse id="svg_620" transform="matrix(0.9658 0.2591 -0.2591 0.9658 116.7791 -56.9541)" fill="#263238" cx="274.427" cy="414.487" rx="0.104" ry="0.849"/>
						</g>
					</g>
				</g>
			</g>
			<g id="svg_621">
				<g id="svg_622">
					<g id="svg_623">
						<g id="svg_624">
							
								<ellipse id="svg_625" transform="matrix(0.8604 0.5097 -0.5097 0.8604 249.3454 -81.2966)" fill="#263238" cx="273.043" cy="414.421" rx="0.104" ry="0.722"/>
						</g>
					</g>
				</g>
			</g>
			<g id="svg_626">
				<g id="svg_627">
					<g id="svg_628">
						<g id="svg_629">
							
								<ellipse id="svg_630" transform="matrix(0.2865 0.9581 -0.9581 0.2865 590.38 34.2511)" fill="#263238" cx="272.194" cy="413.498" rx="0.104" ry="0.9"/>
						</g>
					</g>
				</g>
			</g>
			<g id="svg_631">
				<g id="svg_632">
					<g id="svg_633">
						<g id="svg_634">
							<path id="svg_635" fill="#263238" d="M270.702,412.751c-0.004,0.056,0.475,0.113,1.045-0.021
								c0.569-0.131,0.974-0.393,0.946-0.439c-0.026-0.055-0.452,0.113-0.993,0.236
								C271.157,412.655,270.702,412.691,270.702,412.751z"/>
						</g>
					</g>
				</g>
			</g>
			<g id="svg_636">
				<g id="svg_637">
					<g id="svg_638">
						<g id="svg_639">
							<path id="svg_640" fill="#263238" d="M274.319,413.724c0.006,0.021,0.428-0.055,1.055-0.337
								c0.313-0.142,0.674-0.339,1.047-0.601c0.185-0.138,0.383-0.26,0.563-0.467c0.082-0.102,0.168-0.236,0.158-0.408
								c-0.006-0.173-0.146-0.324-0.291-0.373c-1.174-0.207-2.008,0.676-2.221,1.314c-0.123,0.331-0.135,0.621-0.123,0.813
								c0.015,0.193,0.05,0.297,0.062,0.295c0.042,0.002-0.058-0.438,0.2-1.053c0.128-0.301,0.361-0.628,0.719-0.867
								c0.34-0.229,0.86-0.424,1.286-0.31c0.207,0.071,0.203,0.29,0.052,0.459c-0.14,0.167-0.343,0.306-0.516,0.438
								c-0.355,0.264-0.701,0.47-0.999,0.623C274.711,413.564,274.31,413.691,274.319,413.724z"/>
						</g>
					</g>
				</g>
			</g>
			<g id="svg_641">
				<g id="svg_642">
					<g id="svg_643">
						<g id="svg_644">
							<path id="svg_645" fill="#263238" d="M274.609,413.69c0.019,0.007,0.091-0.312-0.106-0.771
								c-0.099-0.227-0.271-0.477-0.529-0.683c-0.26-0.177-0.602-0.425-1.049-0.264c-0.234,0.106-0.268,0.424-0.172,0.589
								c0.076,0.18,0.209,0.313,0.326,0.416c0.239,0.215,0.483,0.373,0.698,0.482c0.433,0.222,0.731,0.264,0.738,0.24
								c0.011-0.031-0.271-0.125-0.665-0.367c-0.197-0.123-0.421-0.285-0.641-0.496c-0.215-0.178-0.439-0.549-0.189-0.68
								c0.256-0.107,0.607,0.07,0.836,0.231c0.236,0.176,0.406,0.394,0.514,0.593C274.584,413.389,274.572,413.693,274.609,413.69z"
								/>
						</g>
					</g>
				</g>
			</g>
			<g id="svg_646">
				<g id="svg_647">
					<g id="svg_648">
						<g id="svg_649">
							<path id="svg_650" fill="#263238" d="M256.471,418.143c0.015,0.036,0.455-0.19,1.227-0.336
								c0.762-0.147,1.881-0.166,2.991,0.264c1.112,0.433,1.927,1.2,2.388,1.823c0.473,0.626,0.645,1.092,0.68,1.074
								c0.013-0.004-0.02-0.123-0.104-0.33c-0.084-0.208-0.23-0.499-0.456-0.831c-0.444-0.662-1.272-1.479-2.432-1.931
								c-1.159-0.448-2.323-0.404-3.099-0.215c-0.391,0.094-0.694,0.209-0.896,0.307
								C256.568,418.063,256.465,418.132,256.471,418.143z"/>
						</g>
					</g>
				</g>
			</g>
			<g id="svg_651">
				<g id="svg_652">
					<g id="svg_653">
						<g id="svg_654">
							
								<ellipse id="svg_655" transform="matrix(-0.9594 0.2822 -0.2822 -0.9594 620.5543 738.9852)" fill="#263238" cx="257.067" cy="414.175" rx="0.104" ry="3.539"/>
						</g>
					</g>
				</g>
			</g>
			<g id="svg_656">
				<g id="svg_657">
					<g id="svg_658">
						<g id="svg_659">
							<path id="svg_660" fill="#263238" d="M265.377,418.807c0.01,0.054,1.136-0.104,2.475-0.513
								c1.341-0.402,2.367-0.895,2.345-0.943c-0.022-0.057-1.075,0.345-2.403,0.744
								C266.465,418.498,265.366,418.748,265.377,418.807z"/>
						</g>
					</g>
				</g>
			</g>
			<g id="svg_661">
				<g id="svg_662">
					<g id="svg_663">
						<g id="svg_664">
							<path id="svg_665" fill="#263238" d="M262.154,419.809c-0.026,0.053,0.158,0.2,0.347,0.412
								c0.188,0.21,0.313,0.411,0.369,0.391c0.053-0.019,0.004-0.286-0.215-0.528C262.438,419.837,262.176,419.757,262.154,419.809z
								"/>
						</g>
					</g>
				</g>
			</g>
			<g id="svg_666">
				<g id="svg_667">
					<g id="svg_668">
						<g id="svg_669">
							
								<ellipse id="svg_670" transform="matrix(-0.4733 0.8809 -0.8809 -0.4733 753.3669 387.3744)" fill="#263238" cx="260.87" cy="418.921" rx="0.104" ry="0.459"/>
						</g>
					</g>
				</g>
			</g>
			<g id="svg_671">
				<g id="svg_672">
					<g id="svg_673">
						<g id="svg_674">
							<path id="svg_675" fill="#263238" d="M258.514,418.529c0.029,0.053,0.247-0.02,0.516-0.009
								c0.268,0.004,0.482,0.084,0.514,0.032c0.035-0.043-0.178-0.233-0.508-0.24C258.702,418.303,258.481,418.483,258.514,418.529z
								"/>
						</g>
					</g>
				</g>
			</g>
			<g id="svg_676">
				<g id="svg_677">
					<g id="svg_678">
						<g id="svg_679">
							
								<ellipse id="svg_680" transform="matrix(-0.0699 0.9976 -0.9976 -0.0699 693.0168 191.0277)" fill="#263238" cx="257.455" cy="418.584" rx="0.105" ry="0.277"/>
						</g>
					</g>
				</g>
			</g>
		</g>
	</g>
	<g id="svg_682">
		<polyline id="svg_683" fill="#0053CC" points="173.428,235.945 181.467,414.597 208.287,415.16 203.833,265.595 252.436,416.942 
			274.356,410.942 225.444,235.945 		"/>
	</g>
	<g id="svg_684">
		<polygon id="svg_685" fill="#455A64" points="251.288,415.927 252.54,418.332 275.768,411.562 274.356,407.662 		"/>
	</g>
	<g id="svg_686">
		<g id="svg_687">
			<g id="svg_688">
				
					<ellipse id="svg_689" transform="matrix(-0.9576 0.288 -0.288 -0.9576 649.6027 719.4062)" fill="#455A64" cx="271.876" cy="407.493" rx="0.261" ry="0.75"/>
			</g>
		</g>
		<g id="svg_690">
			<g id="svg_691">
				
					<ellipse id="svg_692" transform="matrix(-0.9573 0.2891 -0.2891 -0.9573 645.5405 709.5496)" fill="#455A64" cx="270.375" cy="402.444" rx="0.26" ry="1.514"/>
			</g>
		</g>
		<g id="svg_693">
			<g id="svg_694">
				
					<ellipse id="svg_695" transform="matrix(-0.9578 0.2873 -0.2873 -0.9578 639.9177 699.3671)" fill="#455A64" cx="268.636" cy="396.644" rx="0.26" ry="1.515"/>
			</g>
		</g>
		<g id="svg_696">
			<g id="svg_697">
				
					<ellipse id="svg_698" transform="matrix(-0.9573 0.2891 -0.2891 -0.9573 635.3244 687.7732)" fill="#455A64" cx="266.875" cy="390.801" rx="0.26" ry="1.514"/>
			</g>
		</g>
		<g id="svg_699">
			<g id="svg_700">
				
					<ellipse id="svg_701" transform="matrix(-0.9581 0.2863 -0.2863 -0.9581 629.4567 678.0432)" fill="#455A64" cx="265.157" cy="385.041" rx="0.261" ry="1.514"/>
			</g>
		</g>
		<g id="svg_702">
			<g id="svg_703">
				
					<ellipse id="svg_704" transform="matrix(-0.9581 0.2863 -0.2863 -0.9581 624.3879 667.1808)" fill="#455A64" cx="263.417" cy="379.239" rx="0.261" ry="1.513"/>
			</g>
		</g>
		<g id="svg_705">
			<g id="svg_706">
				
					<ellipse id="svg_707" transform="matrix(-0.9585 0.2851 -0.2851 -0.9585 618.9125 656.7009)" fill="#455A64" cx="261.656" cy="373.4" rx="0.26" ry="1.514"/>
			</g>
		</g>
		<g id="svg_708">
			<g id="svg_709">
				
					<ellipse id="svg_710" transform="matrix(-0.9581 0.2863 -0.2863 -0.9581 614.2548 645.4594)" fill="#455A64" cx="259.938" cy="367.638" rx="0.261" ry="1.515"/>
			</g>
		</g>
		<g id="svg_711">
			<g id="svg_712">
				
					<ellipse id="svg_713" transform="matrix(-0.9583 0.2856 -0.2856 -0.9583 608.9833 634.7493)" fill="#455A64" cx="258.203" cy="361.785" rx="0.26" ry="1.515"/>
			</g>
		</g>
		<g id="svg_714">
			<g id="svg_715">
				
					<ellipse id="svg_716" transform="matrix(-0.9583 0.2856 -0.2856 -0.9583 603.8645 623.9451)" fill="#455A64" cx="256.431" cy="356.009" rx="0.26" ry="1.515"/>
			</g>
		</g>
		<g id="svg_717">
			<g id="svg_718">
				
					<ellipse id="svg_719" transform="matrix(-0.9583 0.2856 -0.2856 -0.9583 598.8624 613.1239)" fill="#455A64" cx="254.719" cy="350.234" rx="0.26" ry="1.514"/>
			</g>
		</g>
		<g id="svg_720">
			<g id="svg_721">
				
					<ellipse id="svg_722" transform="matrix(-0.9578 0.2873 -0.2873 -0.9578 594.2628 601.646)" fill="#455A64" cx="252.98" cy="344.433" rx="0.26" ry="1.514"/>
			</g>
		</g>
		<g id="svg_723">
			<g id="svg_724">
				
					<ellipse id="svg_725" transform="matrix(-0.9573 0.2891 -0.2891 -0.9573 589.5932 590.1169)" fill="#455A64" cx="251.22" cy="338.596" rx="0.26" ry="1.514"/>
			</g>
		</g>
		<g id="svg_726">
			<g id="svg_727">
				
					<ellipse id="svg_728" transform="matrix(-0.9581 0.2863 -0.2863 -0.9581 583.8505 580.2878)" fill="#455A64" cx="249.5" cy="332.829" rx="0.261" ry="1.513"/>
			</g>
		</g>
		<g id="svg_729">
			<g id="svg_730">
				
					<ellipse id="svg_731" transform="matrix(-0.9581 0.2863 -0.2863 -0.9581 578.786 569.4287)" fill="#455A64" cx="247.762" cy="327.029" rx="0.261" ry="1.514"/>
			</g>
		</g>
		<g id="svg_732">
			<g id="svg_733">
				
					<ellipse id="svg_734" transform="matrix(-0.9573 0.2891 -0.2891 -0.9573 574.348 557.5638)" fill="#455A64" cx="246.001" cy="321.194" rx="0.26" ry="1.514"/>
			</g>
		</g>
		<g id="svg_735">
			<g id="svg_736">
				
					<ellipse id="svg_737" transform="matrix(-0.9576 0.288 -0.288 -0.9576 569.0643 547.1234)" fill="#455A64" cx="244.282" cy="315.426" rx="0.261" ry="1.514"/>
			</g>
		</g>
		<g id="svg_738">
			<g id="svg_739">
				
					<ellipse id="svg_740" transform="matrix(-0.9576 0.288 -0.288 -0.9576 563.9888 536.2686)" fill="#455A64" cx="242.542" cy="309.625" rx="0.261" ry="1.514"/>
			</g>
		</g>
		<g id="svg_741">
			<g id="svg_742">
				
					<ellipse id="svg_743" transform="matrix(-0.9585 0.2851 -0.2851 -0.9585 558.1802 526.3468)" fill="#455A64" cx="240.778" cy="303.802" rx="0.26" ry="1.515"/>
			</g>
		</g>
		<g id="svg_744">
			<g id="svg_745">
				
					<ellipse id="svg_746" transform="matrix(-0.9578 0.2873 -0.2873 -0.9578 553.6818 514.7816)" fill="#455A64" cx="239.064" cy="298.022" rx="0.26" ry="1.514"/>
			</g>
		</g>
		<g id="svg_747">
			<g id="svg_748">
				
					<ellipse id="svg_749" transform="matrix(-0.9573 0.2891 -0.2891 -0.9573 548.9879 503.3639)" fill="#455A64" cx="237.324" cy="292.221" rx="0.26" ry="1.514"/>
			</g>
		</g>
		<g id="svg_750">
			<g id="svg_751">
				
					<ellipse id="svg_752" transform="matrix(-0.9583 0.2856 -0.2856 -0.9583 543.1165 493.5669)" fill="#455A64" cx="235.565" cy="286.39" rx="0.26" ry="1.514"/>
			</g>
		</g>
		<g id="svg_753">
			<g id="svg_754">
				
					<ellipse id="svg_755" transform="matrix(-0.9576 0.288 -0.288 -0.9576 538.61 481.991)" fill="#455A64" cx="233.846" cy="280.62" rx="0.261" ry="1.514"/>
			</g>
		</g>
		<g id="svg_756">
			<g id="svg_757">
				
					<ellipse id="svg_758" transform="matrix(-0.9581 0.2863 -0.2863 -0.9581 533.1801 471.6754)" fill="#455A64" cx="232.106" cy="274.818" rx="0.261" ry="1.514"/>
			</g>
		</g>
		<g id="svg_759">
			<g id="svg_760">
				
					<ellipse id="svg_761" transform="matrix(-0.9581 0.2863 -0.2863 -0.9581 528.1113 460.813)" fill="#455A64" cx="230.366" cy="269.017" rx="0.261" ry="1.514"/>
			</g>
		</g>
		<g id="svg_762">
			<g id="svg_763">
				
					<ellipse id="svg_764" transform="matrix(-0.9576 0.288 -0.288 -0.9576 523.3768 449.4237)" fill="#455A64" cx="228.625" cy="263.215" rx="0.261" ry="1.514"/>
			</g>
		</g>
		<g id="svg_765">
			<g id="svg_766">
				
					<ellipse id="svg_767" transform="matrix(-0.9576 0.288 -0.288 -0.9576 518.257 438.5208)" fill="#455A64" cx="226.868" cy="257.387" rx="0.261" ry="1.514"/>
			</g>
		</g>
		<g id="svg_768">
			<g id="svg_769">
				
					<ellipse id="svg_770" transform="matrix(-0.9583 0.2856 -0.2856 -0.9583 512.7323 428.4086)" fill="#455A64" cx="225.125" cy="251.595" rx="0.26" ry="1.515"/>
			</g>
		</g>
		<g id="svg_771">
			<g id="svg_772">
				
					<ellipse id="svg_773" transform="matrix(-0.9578 0.2873 -0.2873 -0.9578 508.0279 417.0604)" fill="#455A64" cx="223.408" cy="245.812" rx="0.26" ry="1.515"/>
			</g>
		</g>
		<g id="svg_774">
			<g id="svg_775">
				
					<ellipse id="svg_776" transform="matrix(-0.9578 0.2873 -0.2873 -0.9578 503.5641 407.5261)" fill="#455A64" cx="221.876" cy="240.717" rx="0.26" ry="0.75"/>
			</g>
		</g>
	</g>
	<g id="svg_777">
		<g id="svg_778">
			<g id="svg_779">
				
					<ellipse id="svg_780" transform="matrix(-0.9986 0.0524 -0.0524 -0.9986 428.8321 817.6194)" fill="#455A64" cx="203.706" cy="414.427" rx="0.261" ry="0.75"/>
			</g>
		</g>
		<g id="svg_781">
			<g id="svg_782">
				
					<ellipse id="svg_783" transform="matrix(-0.9993 0.0376 -0.0376 -0.9993 422.2142 810.5615)" fill="#455A64" cx="203.492" cy="409.248" rx="0.26" ry="1.489"/>
			</g>
		</g>
		<g id="svg_784">
			<g id="svg_785">
				
					<ellipse id="svg_786" transform="matrix(-0.9995 0.03 -0.03 -0.9995 418.5689 800.2394)" fill="#455A64" cx="203.275" cy="403.263" rx="0.26" ry="1.489"/>
			</g>
		</g>
		<g id="svg_787">
			<g id="svg_788">
				
					<ellipse id="svg_789" transform="matrix(-0.9997 0.0244 -0.0244 -0.9997 415.8818 789.566)" fill="#455A64" cx="203.118" cy="397.323" rx="0.26" ry="1.489"/>
			</g>
		</g>
		<g id="svg_790">
			<g id="svg_791">
				
					<ellipse id="svg_792" transform="matrix(-0.9997 0.0243 -0.0243 -0.9997 415.3761 777.6643)" fill="#455A64" cx="202.96" cy="391.357" rx="0.261" ry="1.489"/>
			</g>
		</g>
		<g id="svg_793">
			<g id="svg_794">
				
					<ellipse id="svg_795" transform="matrix(-0.9996 0.0281 -0.0281 -0.9996 416.3707 765.022)" fill="#455A64" cx="202.819" cy="385.432" rx="0.261" ry="1.49"/>
			</g>
		</g>
		<g id="svg_796">
			<g id="svg_797">
				
					<ellipse id="svg_798" transform="matrix(-0.9994 0.0357 -0.0357 -0.9994 418.6955 751.4019)" fill="#455A64" cx="202.647" cy="379.435" rx="0.26" ry="1.491"/>
			</g>
		</g>
		<g id="svg_799">
			<g id="svg_800">
				
					<ellipse id="svg_801" transform="matrix(-0.9991 0.0413 -0.0413 -0.9991 420.0296 738.3004)" fill="#455A64" cx="202.385" cy="373.491" rx="0.26" ry="1.49"/>
			</g>
		</g>
		<g id="svg_802">
			<g id="svg_803">
				
					<ellipse id="svg_804" transform="matrix(-0.9992 0.0394 -0.0394 -0.9992 418.6829 726.8627)" fill="#455A64" cx="202.178" cy="367.558" rx="0.26" ry="1.489"/>
			</g>
		</g>
		<g id="svg_805">
			<g id="svg_806">
				
					<ellipse id="svg_807" transform="matrix(-0.9994 0.0338 -0.0338 -0.9994 415.9791 716.1533)" fill="#455A64" cx="201.934" cy="361.594" rx="0.26" ry="1.489"/>
			</g>
		</g>
		<g id="svg_808">
			<g id="svg_809">
				
					<ellipse id="svg_810" transform="matrix(-0.9995 0.03 -0.03 -0.9995 414.1372 705.0482)" fill="#455A64" cx="201.774" cy="355.634" rx="0.26" ry="1.489"/>
			</g>
		</g>
		<g id="svg_811">
			<g id="svg_812">
				
					<ellipse id="svg_813" transform="matrix(-0.9997 0.0243 -0.0243 -0.9997 411.6414 694.3464)" fill="#455A64" cx="201.599" cy="349.676" rx="0.261" ry="1.489"/>
			</g>
		</g>
		<g id="svg_814">
			<g id="svg_815">
				<ellipse id="svg_816" fill="#455A64" cx="201.463" cy="343.723" rx="0.261" ry="1.49"/>
			</g>
		</g>
		<g id="svg_817">
			<g id="svg_818">
				<ellipse id="svg_819" fill="#455A64" cx="201.358" cy="337.762" rx="0.261" ry="1.489"/>
			</g>
		</g>
		<g id="svg_820">
			<g id="svg_821">
				<ellipse id="svg_822" fill="#455A64" cx="201.267" cy="331.834" rx="0.26" ry="1.489"/>
			</g>
		</g>
		<g id="svg_823">
			<g id="svg_824">
				<ellipse id="svg_825" fill="#455A64" cx="201.232" cy="325.858" rx="0.26" ry="1.489"/>
			</g>
		</g>
		<g id="svg_826">
			<g id="svg_827">
				<ellipse id="svg_828" fill="#455A64" cx="201.206" cy="319.905" rx="0.26" ry="1.489"/>
			</g>
		</g>
		<g id="svg_829">
			<g id="svg_830">
				<ellipse id="svg_831" fill="#455A64" cx="201.211" cy="313.936" rx="0.26" ry="1.489"/>
			</g>
		</g>
		<g id="svg_832">
			<g id="svg_833">
				<ellipse id="svg_834" fill="#455A64" cx="201.272" cy="307.989" rx="0.26" ry="1.489"/>
			</g>
		</g>
		<g id="svg_835">
			<g id="svg_836">
				<ellipse id="svg_837" fill="#455A64" cx="201.325" cy="302.036" rx="0.261" ry="1.49"/>
			</g>
		</g>
		<g id="svg_838">
			<g id="svg_839">
				<ellipse id="svg_840" fill="#455A64" cx="201.415" cy="296.08" rx="0.26" ry="1.489"/>
			</g>
		</g>
		<g id="svg_841">
			<g id="svg_842">
				
					<ellipse id="svg_843" transform="matrix(-0.9997 -0.0225 0.0225 -0.9997 396.5288 584.7)" fill="#455A64" cx="201.549" cy="290.123" rx="0.261" ry="1.491"/>
			</g>
		</g>
		<g id="svg_844">
			<g id="svg_845">
				
					<ellipse id="svg_846" transform="matrix(-0.9992 -0.0394 0.0394 -0.9992 392.0844 576.0441)" fill="#455A64" cx="201.725" cy="284.154" rx="0.26" ry="1.49"/>
			</g>
		</g>
		<g id="svg_847">
			<g id="svg_848">
				
					<ellipse id="svg_849" transform="matrix(-0.9979 -0.0655 0.0655 -0.9979 385.4481 569.0206)" fill="#455A64" cx="202.047" cy="278.195" rx="0.261" ry="1.49"/>
			</g>
		</g>
		<g id="svg_850">
			<g id="svg_851">
				
					<ellipse id="svg_852" transform="matrix(-0.9949 -0.101 0.101 -0.9949 376.5614 563.5789)" fill="#455A64" cx="202.545" cy="272.258" rx="0.261" ry="1.489"/>
			</g>
		</g>
		<g id="svg_853">
			<g id="svg_854">
				
					<ellipse id="svg_855" transform="matrix(-0.9901 -0.1404 0.1404 -0.9901 366.7918 560.0848)" fill="#455A64" cx="203.149" cy="267.106" rx="0.261" ry="0.75"/>
			</g>
		</g>
	</g>
	<g id="svg_856">
		<polygon id="svg_857" fill="#455A64" points="180.766,415.464 209.13,415.927 208.907,411.201 180.766,411.35 		"/>
	</g>
	<g id="svg_858">
		<g id="svg_859">
			<path id="svg_860" fill="#455A64" d="M199.366,238.21c0.036-0.002,0.094,0.388,0.169,1.092c0.075,0.705,0.166,1.728,0.268,2.99
				c0.204,2.525,0.449,6.019,0.688,9.877c0.112,1.922,0.218,3.754,0.316,5.441c0.1,1.674,0.096,3.188,0.518,4.346
				c0.395,1.166,1.202,1.862,1.81,2.151c0.624,0.291,1.036,0.243,1.032,0.296c0.001,0.016-0.097,0.041-0.288,0.045
				c-0.191,0.006-0.478-0.027-0.824-0.154c-0.68-0.25-1.602-0.963-2.076-2.209c-0.497-1.232-0.524-2.789-0.652-4.444
				c-0.11-1.687-0.231-3.519-0.357-5.438c-0.239-3.859-0.426-7.354-0.536-9.887c-0.055-1.266-0.09-2.291-0.103-3
				S199.33,238.212,199.366,238.21z"/>
		</g>
	</g>
	<g id="svg_861">
		<g id="svg_862">
			<path id="svg_863" fill="#455A64" d="M202.12,240.583c0.041,0.066-0.226,0.244-0.249,0.666c-0.012,0.201,0.044,0.453,0.207,0.61
				c0.152,0.159,0.431,0.201,0.7,0.095c0.267-0.111,0.438-0.334,0.436-0.557c0.008-0.227-0.129-0.445-0.277-0.582
				c-0.312-0.286-0.625-0.229-0.643-0.305c-0.047-0.047,0.331-0.301,0.859,0.007c0.239,0.147,0.508,0.433,0.542,0.866
				c0.041,0.443-0.291,0.889-0.72,1.053c-0.421,0.182-0.97,0.093-1.249-0.253c-0.279-0.334-0.285-0.726-0.216-0.998
				C201.672,240.598,202.12,240.516,202.12,240.583z"/>
		</g>
	</g>
	<g id="svg_864">
		<g id="svg_865">
			<path id="svg_866" fill="#455A64" d="M227.357,244.819c0.026,0.046-0.765,0.55-2.228,0.851c-1.442,0.306-3.606,0.305-5.713-0.635
				c-2.106-0.945-3.551-2.557-4.285-3.834c-0.752-1.291-0.904-2.217-0.853-2.228c0.085-0.031,0.362,0.839,1.164,2.028
				c0.787,1.185,2.198,2.666,4.186,3.557c1.989,0.887,4.033,0.949,5.44,0.747C226.491,245.109,227.324,244.734,227.357,244.819z"/>
		</g>
	</g>
	<g id="svg_867">
		<g id="svg_868">
			<path id="svg_869" fill="#455A64" d="M182.754,238.212c0.056-0.006,0.172,0.75-0.095,1.936c-0.255,1.172-0.987,2.775-2.401,4.016
				c-1.416,1.239-3.102,1.754-4.297,1.854c-1.211,0.109-1.943-0.105-1.931-0.159c0.008-0.087,0.742-0.009,1.882-0.205
				c1.131-0.187,2.685-0.728,4.003-1.88c1.315-1.154,2.055-2.624,2.388-3.721C182.648,238.946,182.667,238.208,182.754,238.212z"/>
		</g>
	</g>
	<g id="svg_870">
		<path id="svg_871" fill="#FFBE9D" d="M258.704,219.11c5.508-6.332,5.476-15.764-0.076-22.057l-26.744-30.328l-7.158,20.011
			c0.488,0.325,20.824,22.125,20.824,22.125l-17.477,21.78c-2.692,3.354-3.477,7.854-2.076,11.923l4.669,11.432l12.783-5.734
			l-0.971-1.492h-9.596l-0.57-2.301l0,0L258.704,219.11z"/>
	</g>
	<g id="svg_872">
		<g id="svg_873">
			<path id="svg_874" fill="#455A64" d="M148.295,114.939c0,0,4.189,4.94,8.525-0.932c3.408-4.615,4.137-10.321,1.403-12.738
				l0.894-0.594c0,0,4.559,2.956,2.5,9.404c-2.059,6.448-6.495,9.78-9.647,9.276c-3.152-0.504-3.989-3.805-3.989-3.805l0.307-0.93"
				/>
		</g>
		<g id="svg_875">
			<path id="svg_876" fill="#FFBE9D" d="M175.743,162.855c0,0-26.831,11.072-26.223,10.338l-0.677-32.916h-10.501
				c0,0-7.469,43.417,0.541,48.53c10.948,6.988,37.456-7.557,37.456-7.557L175.743,162.855z"/>
		</g>
		<g id="svg_877">
			<g id="svg_878">
				<polyline id="svg_879" fill="#FFBE9D" points="146.707,126.9 146.659,127.246 144.652,141.593 138.342,140.278 139.145,132.021 
									"/>
			</g>
			<g id="svg_880">
				<path id="svg_881" fill="#FFBE9D" d="M148.674,125.473l-4.362,15.543l3.886,0.77c0,0,0.546-1.141,1.817-4.511
					c1.467-3.89-0.104-7.153-0.23-7.496c0,0,3.527-7.961,2.164-8.324C150.585,121.091,148.674,125.473,148.674,125.473z"/>
			</g>
			<g id="svg_882">
				<path id="svg_883" fill="#263238" d="M152.074,119.064c-0.224,0.671-9.578,23.805-9.578,23.805l-2.342-1.312l9.404-24.577
					L152.074,119.064z"/>
			</g>
			<g id="svg_884">
				<path id="svg_885" fill="#FFBE9D" d="M138.628,139.057c0,0-1.145-6.804,0.111-8.914c0.451-0.757,6.889-9.63,7.354-9.346
					c0.465,0.284,3.254,8.142,1.772,8.406c-1.482,0.265-2.072-1.303-2.072-1.303s1.937,4.835,0.579,4.914s-2.513-2.914-2.513-2.914
					s2.861,5.702,1.067,6.001c-1.793,0.3-4.253-4.391-4.253-4.391L138.628,139.057z"/>
			</g>
			<g id="svg_886">
				<g id="svg_887">
					<path id="svg_888" fill="#EB996E" d="M144.547,123.958c0.135-0.049,0.775,1.367,1.43,3.164c0.167,0.452,0.297,0.881,0.48,1.207
						c0.178,0.33,0.421,0.55,0.67,0.691c0.5,0.281,0.904,0.247,0.909,0.328c0.022,0.055-0.403,0.249-1.065,0.006
						c-0.32-0.117-0.684-0.387-0.925-0.776c-0.248-0.386-0.393-0.834-0.559-1.276C144.833,125.504,144.412,124.007,144.547,123.958z
						"/>
				</g>
			</g>
			<g id="svg_889">
				<g id="svg_890">
					<path id="svg_891" fill="#EB996E" d="M142.563,126.161c0.145-0.047,1.077,2.603,2.63,5.682c0.188,0.39,0.376,0.733,0.647,0.833
						c0.281,0.113,0.482-0.012,0.571-0.319c0.089-0.294,0.061-0.652,0.049-0.979c-0.016-0.327-0.046-0.63-0.083-0.907
						c-0.152-1.106-0.381-1.775-0.305-1.803c0.057-0.025,0.414,0.605,0.668,1.739c0.062,0.283,0.114,0.597,0.15,0.937
						c0.027,0.335,0.089,0.705-0.018,1.143c-0.053,0.209-0.171,0.462-0.419,0.614c-0.245,0.154-0.563,0.148-0.802,0.05
						c-0.522-0.21-0.736-0.708-0.924-1.074C143.153,128.953,142.432,126.196,142.563,126.161z"/>
				</g>
			</g>
			<g id="svg_892">
				<g id="svg_893">
					<path id="svg_894" fill="#EB996E" d="M140.838,129.461c0.064-0.033,0.472,0.621,1.079,1.704
						c0.331,0.606,0.678,1.244,1.043,1.915c0.195,0.371,0.395,0.75,0.6,1.139c0.215,0.389,0.397,0.838,0.66,1.131
						c0.263,0.296,0.647,0.398,0.886,0.203c0.263-0.201,0.377-0.569,0.329-0.923c-0.118-0.718-0.469-1.439-0.64-2.021
						c-0.401-1.175-0.616-1.915-0.549-1.94c0.067-0.026,0.403,0.667,0.893,1.808c0.128,0.304,0.259,0.615,0.394,0.936
						c0.134,0.335,0.31,0.702,0.378,1.159c0.073,0.446-0.039,1.034-0.499,1.39c-0.227,0.182-0.568,0.255-0.856,0.181
						c-0.289-0.068-0.533-0.235-0.72-0.441c-0.365-0.424-0.516-0.859-0.729-1.249c-0.196-0.394-0.386-0.777-0.573-1.153
						c-0.331-0.688-0.645-1.343-0.944-1.965C141.066,130.207,140.774,129.494,140.838,129.461z"/>
				</g>
			</g>
		</g>
		<g id="svg_895">
			<path id="svg_896" fill="#263238" d="M152.588,120.086c-0.781,0-1.543-0.151-2.262-0.469c-1.941-0.858-3.257-2.745-3.707-5.311
				c-0.423-2.42-0.021-5.189,1.133-7.798c1.154-2.609,2.932-4.77,5.007-6.085c2.201-1.393,4.482-1.688,6.423-0.83
				c1.94,0.858,3.257,2.744,3.706,5.311c0.423,2.419,0.021,5.189-1.133,7.798C159.769,117.195,156.003,120.086,152.588,120.086z
				 M156.877,101.115c-0.96,0-2.002,0.337-3.047,0.999c-1.744,1.104-3.253,2.953-4.249,5.204s-1.348,4.611-0.992,6.645
				c0.33,1.888,1.234,3.247,2.545,3.826c2.805,1.238,6.83-1.46,8.792-5.895c0.996-2.251,1.348-4.611,0.992-6.645
				c-0.33-1.888-1.234-3.247-2.545-3.826C157.909,101.217,157.405,101.115,156.877,101.115z"/>
		</g>
	</g>
	<g id="svg_898">
		<path id="svg_899" fill="#F14D4E" d="M246.038,179.549l-16.894-17.029l-0.002,0.003c-3.266-3.389-7.089-5.896-11.664-7.551
			c-2.223-0.804-4.582-1.285-7.31-1.4l0,0c-5.886,1.819-11.771,1.822-17.656,0.011c-2.425,0.304-7.781,0.98-13.921,3.985v-0.001
			L153.366,167.8l8.082,22.297l13.523-4.551l0.8,20.965l-2.671,31.372l52.344,0.543l-0.677-28.453l-0.038-20.585l7.553,7.352
			L246.038,179.549z"/>
	</g>
	<g id="svg_900">
		<g id="svg_901">
			<path id="svg_902" fill="#263238" d="M231.831,166.979c0,0-0.213,0.422-0.744,1.143c-0.526,0.72-1.381,1.744-2.692,2.835
				c-1.312,1.08-3.102,2.227-5.412,2.992c-2.294,0.773-5.137,1.11-8.152,0.525c-3-0.562-6.187-2.018-8.751-4.595
				c-0.62-0.668-1.171-1.428-1.564-2.295c-0.392-0.856-0.636-1.853-0.452-2.86c0.186-0.995,0.864-1.938,1.854-2.341
				c0.978-0.411,2.095-0.336,3.07,0.035c0.982,0.365,1.875,1.06,2.409,2.023c0.505,0.952,0.717,2.056,0.652,3.137
				c-0.117,2.179-1.103,4.241-2.452,5.985c-2.704,3.537-7.119,5.826-11.805,6.148c-2.343,0.134-4.7-0.22-6.816-1.116
				c-2.094-0.895-4.025-2.308-5.154-4.278c-1.113-1.95-1.327-4.43-0.28-6.394c1.046-1.968,3.41-3.02,5.484-2.506
				c1.043,0.247,1.927,0.971,2.441,1.858c0.531,0.888,0.723,1.918,0.677,2.902c-0.084,2.021-1.423,3.708-2.967,4.643
				c-1.562,0.973-3.355,1.338-5.026,1.343c-1.683,0.01-3.268-0.284-4.75-0.615c-2.959-0.659-5.621-1.557-7.653-2.915
				c-2.051-1.331-3.334-3.126-3.943-4.718c-0.635-1.603-0.625-2.987-0.481-3.866c0.153-0.888,0.382-1.309,0.382-1.309
				c0.034,0.01-0.161,0.446-0.278,1.324c-0.108,0.87-0.084,2.22,0.565,3.775c0.627,1.548,1.894,3.271,3.915,4.55
				c2.002,1.306,4.627,2.167,7.573,2.799c1.472,0.317,3.034,0.593,4.665,0.573c1.622-0.015,3.327-0.378,4.802-1.307
				c1.46-0.9,2.67-2.457,2.739-4.301c0.039-0.903-0.143-1.847-0.623-2.638c-0.466-0.792-1.236-1.418-2.155-1.632
				c-1.833-0.458-4.009,0.508-4.928,2.275c-0.948,1.776-0.756,4.095,0.284,5.905c1.057,1.841,2.893,3.194,4.916,4.056
				c2.037,0.86,4.311,1.203,6.579,1.073c4.537-0.311,8.825-2.533,11.434-5.939c1.307-1.681,2.247-3.664,2.359-5.7
				c0.063-1.01-0.133-2.017-0.586-2.88c-0.461-0.839-1.259-1.475-2.148-1.806c-0.881-0.34-1.885-0.401-2.717-0.051
				c-0.839,0.335-1.419,1.132-1.588,1.996c-0.165,0.872,0.043,1.785,0.409,2.59c0.363,0.814,0.885,1.543,1.472,2.182
				c2.465,2.504,5.579,3.96,8.507,4.529c2.946,0.595,5.729,0.292,7.992-0.44c2.278-0.726,4.06-1.829,5.374-2.873
				c1.315-1.054,2.187-2.046,2.737-2.741C231.559,167.362,231.806,166.962,231.831,166.979z"/>
		</g>
	</g>
	<g id="svg_903">
		<g id="svg_904">
			<path id="svg_905" fill="#263238" d="M223.268,211.393c0,0-0.323,0.239-1.034,0.507c-0.707,0.261-1.826,0.529-3.272,0.427
				c-1.439-0.091-3.195-0.575-4.956-1.637c-1.772-1.045-3.524-2.601-5.32-4.433c-0.877-0.928-1.783-2.035-2.115-3.475
				c-0.15-0.716-0.13-1.486,0.113-2.214c0.236-0.722,0.719-1.425,1.453-1.807c0.724-0.391,1.629-0.402,2.398-0.115
				c0.776,0.279,1.46,0.782,2.011,1.41c1.09,1.279,1.606,3.02,1.546,4.756c-0.058,1.738-0.66,3.504-1.784,4.946
				c-1.128,1.438-2.731,2.51-4.508,3.121c-1.78,0.61-3.735,0.792-5.655,0.519c-1.917-0.278-3.791-0.955-5.515-1.917
				c-1.723-0.972-3.303-2.129-4.661-3.513c-1.341-1.372-2.385-3.179-2.409-5.127c-0.023-0.958,0.193-1.934,0.696-2.753
				c0.5-0.828,1.298-1.434,2.167-1.765c1.751-0.637,3.762-0.326,5.151,0.805c1.388,1.138,2.043,2.883,2.1,4.523
				c0.067,1.66-0.493,3.264-1.416,4.499c-1.859,2.514-4.726,3.681-7.258,4.022c-5.14,0.563-9.396-0.592-11.761-2.257
				c-1.202-0.815-1.877-1.761-2.235-2.422c-0.186-0.332-0.288-0.603-0.347-0.788c-0.064-0.183-0.093-0.277-0.085-0.28
				c0.038-0.015,0.136,0.376,0.523,1.016c0.381,0.633,1.065,1.534,2.258,2.306c2.333,1.577,6.567,2.659,11.593,2.06
				c2.467-0.354,5.213-1.514,6.962-3.911c0.868-1.179,1.376-2.672,1.308-4.228c-0.06-1.537-0.684-3.146-1.945-4.168
				c-1.241-1.011-3.1-1.293-4.671-0.712c-0.78,0.303-1.475,0.834-1.913,1.563c-0.442,0.725-0.64,1.602-0.616,2.479
				c0.025,1.783,0.98,3.457,2.272,4.78c1.305,1.329,2.867,2.475,4.54,3.417c1.679,0.938,3.491,1.591,5.335,1.86
				c1.841,0.264,3.714,0.091,5.416-0.488c1.698-0.58,3.219-1.598,4.283-2.946c1.059-1.348,1.636-3.019,1.696-4.655
				c0.065-1.632-0.422-3.267-1.414-4.44c-0.499-0.577-1.126-1.039-1.813-1.289c-0.684-0.257-1.439-0.244-2.049,0.079
				c-1.248,0.662-1.643,2.292-1.372,3.554c0.29,1.314,1.135,2.39,1.989,3.306c1.761,1.83,3.482,3.39,5.203,4.436
				c1.712,1.065,3.413,1.563,4.821,1.684c1.414,0.131,2.516-0.099,3.223-0.324C222.91,211.569,223.255,211.367,223.268,211.393z"/>
		</g>
	</g>
</g>
<rect x="279.333" y="47.821" fill="#708FFF" width="0.625" height="3.754"/>
<rect x="279.333" y="40.313" fill="#708FFF" width="0.625" height="3.754"/>
<rect x="279.333" y="32.806" fill="#708FFF" width="0.625" height="3.754"/>
<g id="svg_114_1_">
	<path id="svg_113_3_" fill="#E0E0E0" d="M265.809,23.142h26.297c2.827,0,5.119,2.292,5.119,5.119v26.296
		c0,2.827-2.292,5.119-5.119,5.119h-26.297c-2.827,0-5.119-2.292-5.119-5.119V28.261C260.69,25.434,262.982,23.142,265.809,23.142z"
		/>
	<g id="svg_115_1_">
		<path id="svg_116_1_" fill="#455A64" d="M279.394,28.79c7.172,0,13.008,5.836,13.008,13.008c0,7.173-5.836,13.009-13.008,13.009
			c-7.173,0-13.008-5.836-13.008-13.009C266.386,34.625,272.221,28.79,279.394,28.79z M279.394,53.071
			c6.216,0,11.274-5.057,11.274-11.273c0-6.216-5.059-11.274-11.274-11.274c-6.217,0-11.274,5.058-11.274,11.274
			C268.12,48.014,273.177,53.071,279.394,53.071z"/>
	</g>
	<g id="svg_117_1_">
		<path id="svg_118_1_" fill="#455A64" d="M279.394,45.267c1.436,0,2.601,1.167,2.601,2.602s-1.165,2.602-2.601,2.602
			s-2.602-1.167-2.602-2.602S277.958,45.267,279.394,45.267z M279.394,48.735c0.478,0,0.866-0.389,0.866-0.867
			s-0.389-0.867-0.866-0.867c-0.479,0-0.867,0.389-0.867,0.867S278.916,48.735,279.394,48.735z"/>
	</g>
	<g id="svg_119_1_">
		<path id="svg_120_1_" fill="#455A64" d="M279.394,33.125c1.436,0,2.601,1.167,2.601,2.602v6.071c0,1.435-1.165,2.602-2.601,2.602
			s-2.602-1.167-2.602-2.602v-6.071C276.792,34.292,277.958,33.125,279.394,33.125z M279.394,42.665
			c0.478,0,0.866-0.389,0.866-0.867v-6.071c0-0.478-0.389-0.868-0.866-0.868c-0.479,0-0.867,0.39-0.867,0.868v6.071
			C278.527,42.276,278.916,42.665,279.394,42.665z"/>
	</g>
</g>
</svg>
